<?xml version="1.0" encoding="UTF-8"?><svg id="Layer_2" xmlns="http://www.w3.org/2000/svg" xmlns:xlink="http://www.w3.org/1999/xlink" viewBox="0 0 436.36 716"><defs><style>.cls-1{stroke-width:.25px;}.cls-1,.cls-2,.cls-3,.cls-4,.cls-5,.cls-6,.cls-7,.cls-8,.cls-9{stroke-miterlimit:10;}.cls-1,.cls-4,.cls-9{stroke:#4d4d4d;}.cls-10{letter-spacing:0em;}.cls-11,.cls-12,.cls-6,.cls-13{fill:#fff;}.cls-14{letter-spacing:-.01em;}.cls-14,.cls-15{font-family:CenturyGothic-Bold, 'Century Gothic';font-size:14px;}.cls-16{fill:#6e1f1f;}.cls-2{stroke:#333;}.cls-2,.cls-7,.cls-8{fill:none;stroke-width:5px;}.cls-3{fill:#666;stroke:gray;}.cls-3,.cls-4{stroke-width:2px;}.cls-15{letter-spacing:-.01em;}.cls-17{fill:#aaa9a9;}.cls-18{fill:#a7a7a6;}.cls-19{fill:#ae622f;}.cls-20{fill:#0c0c0c;}.cls-21{fill:#3b3b3a;}.cls-22{fill:#a05a2c;}.cls-23{fill:#a2d2a2;}.cls-24{fill:#555554;}.cls-4{fill:#c1272d;}.cls-25{letter-spacing:0em;}.cls-5{fill:#999;}.cls-5,.cls-7{stroke:#000;}.cls-26{fill:#5aa25a;}.cls-27{fill:#595857;}.cls-28{fill:#68ab68;}.cls-29{fill:#978129;}.cls-30{fill:#457c45;}.cls-12,.cls-13{font-family:Calibri, Calibri;font-size:13px;}.cls-31{fill:#b03030;}.cls-32{fill:#438b43;}.cls-33{fill:#cea76e;}.cls-34{fill:#c99952;}.cls-6{stroke:#fbb03b;stroke-width:3px;}.cls-35{fill:#e6e6e6;}.cls-36{fill:#c89a50;}.cls-37{fill:#a9912f;}.cls-38{fill:#b79d33;}.cls-39{fill:#272727;}.cls-40{fill:#814823;}.cls-41{fill:#9e9e9d;}.cls-42{fill:#a02c2c;}.cls-43{fill:#498449;}.cls-44{fill:#467d46;}.cls-45{fill:#449144;}.cls-46{fill:#4ea14e;}.cls-47{fill:#d1ae7b;}.cls-48{fill:#4f8e4f;}.cls-49{fill:#cba15f;}.cls-50{fill:#9e9e9f;}.cls-51{letter-spacing:-.03em;}.cls-8{stroke:red;}.cls-52{letter-spacing:0em;}.cls-13,.cls-53{letter-spacing:-.01em;}.cls-54{fill:#c5c5c4;}.cls-55{fill:#4b874b;}.cls-56{fill:#3f723f;}.cls-57{fill:#c59140;}.cls-58{fill:#ed1c24;font-family:MyriadPro-Regular, 'Myriad Pro';font-size:25.91px;}.cls-59{fill:#1a1a1a;}.cls-60{fill:#7bc07b;}.cls-61{fill:#62b562;}.cls-62{letter-spacing:0em;}.cls-63{fill:#29abe2;}.cls-64{letter-spacing:.01em;}.cls-65{fill:#3c6d3c;}.cls-66{fill:#add7ad;}.cls-67{fill:#5a8d5a;}.cls-68{fill:#dededd;}.cls-69{fill:red;}.cls-9{stroke-width:.5px;}</style><symbol id="Breadboard" viewBox="0 0 436.36 652"><g><g><polygon class="cls-17" points="0 652 0 0 436.36 0 436.36 652 0 652"/><g><polygon class="cls-11" points="4.51 648.12 4.51 5.13 431 5.13 431 648.12 4.51 648.12"/><polygon class="cls-27" points="399.05 50.5 399.05 44.2 405.36 44.2 405.36 50.5 399.05 50.5"/><polygon class="cls-27" points="399.05 70.31 399.05 64 405.36 64 405.36 70.31 399.05 70.31"/><polygon class="cls-27" points="399.05 90.11 399.05 83.81 405.36 83.81 405.36 90.11 399.05 90.11"/><polygon class="cls-27" points="399.05 109.92 399.05 103.61 405.36 103.61 405.36 109.92 399.05 109.92"/><polygon class="cls-27" points="399.05 129.72 399.05 123.42 405.36 123.42 405.36 129.72 399.05 129.72"/><polygon class="cls-27" points="379.01 50.5 379.01 44.2 385.32 44.2 385.32 50.5 379.01 50.5"/><polygon class="cls-27" points="379.01 70.31 379.01 64 385.32 64 385.32 70.31 379.01 70.31"/><polygon class="cls-27" points="379.01 90.11 379.01 83.81 385.32 83.81 385.32 90.11 379.01 90.11"/><polygon class="cls-27" points="379.01 109.92 379.01 103.61 385.32 103.61 385.32 109.92 379.01 109.92"/><polygon class="cls-27" points="379.01 129.72 379.01 123.42 385.32 123.42 385.32 129.72 379.01 129.72"/><polygon class="cls-27" points="322.04 40.87 322.04 34.56 328.34 34.56 328.34 40.87 322.04 40.87"/><polygon class="cls-27" points="322.04 60.77 322.04 54.46 328.34 54.46 328.34 60.77 322.04 60.77"/><polygon class="cls-27" points="322.04 80.66 322.04 74.35 328.34 74.35 328.34 80.66 322.04 80.66"/><polygon class="cls-27" points="322.04 100.55 322.04 94.25 328.34 94.25 328.34 100.55 322.04 100.55"/><polygon class="cls-27" points="322.04 120.45 322.04 114.14 328.34 114.14 328.34 120.45 322.04 120.45"/><polygon class="cls-27" points="322.04 140.34 322.04 134.04 328.34 134.04 328.34 140.34 322.04 140.34"/><polygon class="cls-27" points="322.04 160.24 322.04 153.93 328.34 153.93 328.34 160.24 322.04 160.24"/><polygon class="cls-27" points="322.04 180.13 322.04 173.82 328.34 173.82 328.34 180.13 322.04 180.13"/><polygon class="cls-27" points="322.04 200.03 322.04 193.72 328.34 193.72 328.34 200.03 322.04 200.03"/><polygon class="cls-27" points="322.04 219.92 322.04 213.61 328.34 213.61 328.34 219.92 322.04 219.92"/><polygon class="cls-27" points="322.04 239.81 322.04 233.51 328.34 233.51 328.34 239.81 322.04 239.81"/><polygon class="cls-27" points="322.04 259.71 322.04 253.4 328.34 253.4 328.34 259.71 322.04 259.71"/><polygon class="cls-27" points="322.04 279.6 322.04 273.3 328.34 273.3 328.34 279.6 322.04 279.6"/><polygon class="cls-27" points="322.04 299.5 322.04 293.19 328.34 293.19 328.34 299.5 322.04 299.5"/><polygon class="cls-27" points="322.04 319.39 322.04 313.08 328.34 313.08 328.34 319.39 322.04 319.39"/><polygon class="cls-27" points="322.04 339.29 322.04 332.98 328.34 332.98 328.34 339.29 322.04 339.29"/><polygon class="cls-27" points="322.04 359.18 322.04 352.87 328.34 352.87 328.34 359.18 322.04 359.18"/><polygon class="cls-27" points="322.04 379.07 322.04 372.77 328.34 372.77 328.34 379.07 322.04 379.07"/><polygon class="cls-27" points="322.04 398.97 322.04 392.66 328.34 392.66 328.34 398.97 322.04 398.97"/><polygon class="cls-27" points="322.04 418.86 322.04 412.56 328.34 412.56 328.34 418.86 322.04 418.86"/><polygon class="cls-27" points="322.04 438.76 322.04 432.45 328.34 432.45 328.34 438.76 322.04 438.76"/><polygon class="cls-27" points="322.04 458.65 322.04 452.34 328.34 452.34 328.34 458.65 322.04 458.65"/><polygon class="cls-27" points="322.04 478.55 322.04 472.24 328.34 472.24 328.34 478.55 322.04 478.55"/><polygon class="cls-27" points="322.04 498.44 322.04 492.13 328.34 492.13 328.34 498.44 322.04 498.44"/><polygon class="cls-27" points="322.04 518.33 322.04 512.03 328.34 512.03 328.34 518.33 322.04 518.33"/><polygon class="cls-27" points="322.04 538.23 322.04 531.92 328.34 531.92 328.34 538.23 322.04 538.23"/><polygon class="cls-27" points="322.04 558.12 322.04 551.82 328.34 551.82 328.34 558.12 322.04 558.12"/><polygon class="cls-27" points="322.04 578.02 322.04 571.71 328.34 571.71 328.34 578.02 322.04 578.02"/><polygon class="cls-27" points="322.04 597.91 322.04 591.6 328.34 591.6 328.34 597.91 322.04 597.91"/><polygon class="cls-27" points="322.04 617.81 322.04 611.5 328.34 611.5 328.34 617.81 322.04 617.81"/><polygon class="cls-27" points="302.5 40.87 302.5 34.56 308.81 34.56 308.81 40.87 302.5 40.87"/><polygon class="cls-27" points="302.5 60.77 302.5 54.46 308.81 54.46 308.81 60.77 302.5 60.77"/><polygon class="cls-27" points="302.5 80.66 302.5 74.35 308.81 74.35 308.81 80.66 302.5 80.66"/><polygon class="cls-27" points="302.5 100.55 302.5 94.25 308.81 94.25 308.81 100.55 302.5 100.55"/><polygon class="cls-27" points="302.5 120.45 302.5 114.14 308.81 114.14 308.81 120.45 302.5 120.45"/><polygon class="cls-27" points="302.5 140.34 302.5 134.04 308.81 134.04 308.81 140.34 302.5 140.34"/><polygon class="cls-27" points="302.5 160.24 302.5 153.93 308.81 153.93 308.81 160.24 302.5 160.24"/><polygon class="cls-27" points="302.5 180.13 302.5 173.82 308.81 173.82 308.81 180.13 302.5 180.13"/><polygon class="cls-27" points="302.5 200.03 302.5 193.72 308.81 193.72 308.81 200.03 302.5 200.03"/><polygon class="cls-27" points="302.5 219.92 302.5 213.61 308.81 213.61 308.81 219.92 302.5 219.92"/><polygon class="cls-27" points="302.5 239.81 302.5 233.51 308.81 233.51 308.81 239.81 302.5 239.81"/><polygon class="cls-27" points="302.5 259.71 302.5 253.4 308.81 253.4 308.81 259.71 302.5 259.71"/><polygon class="cls-27" points="302.5 279.6 302.5 273.3 308.81 273.3 308.81 279.6 302.5 279.6"/><polygon class="cls-27" points="302.5 299.5 302.5 293.19 308.81 293.19 308.81 299.5 302.5 299.5"/><polygon class="cls-27" points="302.5 319.39 302.5 313.08 308.81 313.08 308.81 319.39 302.5 319.39"/><polygon class="cls-27" points="302.5 339.29 302.5 332.98 308.81 332.98 308.81 339.29 302.5 339.29"/><polygon class="cls-27" points="302.5 359.18 302.5 352.87 308.81 352.87 308.81 359.18 302.5 359.18"/><polygon class="cls-27" points="302.5 379.07 302.5 372.77 308.81 372.77 308.81 379.07 302.5 379.07"/><polygon class="cls-27" points="302.5 398.97 302.5 392.66 308.81 392.66 308.81 398.97 302.5 398.97"/><polygon class="cls-27" points="302.5 418.86 302.5 412.56 308.81 412.56 308.81 418.86 302.5 418.86"/><polygon class="cls-27" points="302.5 438.76 302.5 432.45 308.81 432.45 308.81 438.76 302.5 438.76"/><polygon class="cls-27" points="302.5 458.65 302.5 452.34 308.81 452.34 308.81 458.65 302.5 458.65"/><polygon class="cls-27" points="302.5 478.55 302.5 472.24 308.81 472.24 308.81 478.55 302.5 478.55"/><polygon class="cls-27" points="302.5 498.44 302.5 492.13 308.81 492.13 308.81 498.44 302.5 498.44"/><polygon class="cls-27" points="302.5 518.33 302.5 512.03 308.81 512.03 308.81 518.33 302.5 518.33"/><polygon class="cls-27" points="302.5 538.23 302.5 531.92 308.81 531.92 308.81 538.23 302.5 538.23"/><polygon class="cls-27" points="302.5 558.12 302.5 551.82 308.81 551.82 308.81 558.12 302.5 558.12"/><polygon class="cls-27" points="302.5 578.02 302.5 571.71 308.81 571.71 308.81 578.02 302.5 578.02"/><polygon class="cls-27" points="302.5 597.91 302.5 591.6 308.81 591.6 308.81 597.91 302.5 597.91"/><polygon class="cls-27" points="302.5 617.81 302.5 611.5 308.81 611.5 308.81 617.81 302.5 617.81"/><polygon class="cls-27" points="282.97 40.87 282.97 34.56 289.28 34.56 289.28 40.87 282.97 40.87"/><polygon class="cls-27" points="282.97 60.77 282.97 54.46 289.28 54.46 289.28 60.77 282.97 60.77"/><polygon class="cls-27" points="282.97 80.66 282.97 74.35 289.28 74.35 289.28 80.66 282.97 80.66"/><polygon class="cls-27" points="282.97 100.55 282.97 94.25 289.28 94.25 289.28 100.55 282.97 100.55"/><polygon class="cls-27" points="282.97 120.45 282.97 114.14 289.28 114.14 289.28 120.45 282.97 120.45"/><polygon class="cls-27" points="282.97 140.34 282.97 134.04 289.28 134.04 289.28 140.34 282.97 140.34"/><polygon class="cls-27" points="282.97 160.24 282.97 153.93 289.28 153.93 289.28 160.24 282.97 160.24"/><polygon class="cls-27" points="282.97 180.13 282.97 173.82 289.28 173.82 289.28 180.13 282.97 180.13"/><polygon class="cls-27" points="282.97 200.03 282.97 193.72 289.28 193.72 289.28 200.03 282.97 200.03"/><polygon class="cls-27" points="282.97 219.92 282.97 213.61 289.28 213.61 289.28 219.92 282.97 219.92"/><polygon class="cls-27" points="282.97 239.81 282.97 233.51 289.28 233.51 289.28 239.81 282.97 239.81"/><polygon class="cls-27" points="282.97 259.71 282.97 253.4 289.28 253.4 289.28 259.71 282.97 259.71"/><polygon class="cls-27" points="282.97 279.6 282.97 273.3 289.28 273.3 289.28 279.6 282.97 279.6"/><polygon class="cls-27" points="282.97 299.5 282.97 293.19 289.28 293.19 289.28 299.5 282.97 299.5"/><polygon class="cls-27" points="282.97 319.39 282.97 313.08 289.28 313.08 289.28 319.39 282.97 319.39"/><polygon class="cls-27" points="282.97 339.29 282.97 332.98 289.28 332.98 289.28 339.29 282.97 339.29"/><polygon class="cls-27" points="282.97 359.18 282.97 352.87 289.28 352.87 289.28 359.18 282.97 359.18"/><polygon class="cls-27" points="282.97 379.07 282.97 372.77 289.28 372.77 289.28 379.07 282.97 379.07"/><polygon class="cls-27" points="282.97 398.97 282.97 392.66 289.28 392.66 289.28 398.97 282.97 398.97"/><polygon class="cls-27" points="282.97 418.86 282.97 412.56 289.28 412.56 289.28 418.86 282.97 418.86"/><polygon class="cls-27" points="282.97 438.76 282.97 432.45 289.28 432.45 289.28 438.76 282.97 438.76"/><polygon class="cls-27" points="282.97 458.65 282.97 452.34 289.28 452.34 289.28 458.65 282.97 458.65"/><polygon class="cls-27" points="282.97 478.55 282.97 472.24 289.28 472.24 289.28 478.55 282.97 478.55"/><polygon class="cls-27" points="282.97 498.44 282.97 492.13 289.28 492.13 289.28 498.44 282.97 498.44"/><polygon class="cls-27" points="282.97 518.33 282.97 512.03 289.28 512.03 289.28 518.33 282.97 518.33"/><polygon class="cls-27" points="282.97 538.23 282.97 531.92 289.28 531.92 289.28 538.23 282.97 538.23"/><polygon class="cls-27" points="282.97 558.12 282.97 551.82 289.28 551.82 289.28 558.12 282.97 558.12"/><polygon class="cls-27" points="282.97 578.02 282.97 571.71 289.28 571.71 289.28 578.02 282.97 578.02"/><polygon class="cls-27" points="282.97 597.91 282.97 591.6 289.28 591.6 289.28 597.91 282.97 597.91"/><polygon class="cls-27" points="282.97 617.81 282.97 611.5 289.28 611.5 289.28 617.81 282.97 617.81"/><polygon class="cls-27" points="263.44 40.87 263.44 34.56 269.74 34.56 269.74 40.87 263.44 40.87"/><polygon class="cls-27" points="263.44 60.77 263.44 54.46 269.74 54.46 269.74 60.77 263.44 60.77"/><polygon class="cls-27" points="263.44 80.66 263.44 74.35 269.74 74.35 269.74 80.66 263.44 80.66"/><polygon class="cls-27" points="263.44 100.55 263.44 94.25 269.74 94.25 269.74 100.55 263.44 100.55"/><polygon class="cls-27" points="263.44 120.45 263.44 114.14 269.74 114.14 269.74 120.45 263.44 120.45"/><polygon class="cls-27" points="263.44 140.34 263.44 134.04 269.74 134.04 269.74 140.34 263.44 140.34"/><polygon class="cls-27" points="263.44 160.24 263.44 153.93 269.74 153.93 269.74 160.24 263.44 160.24"/><polygon class="cls-27" points="263.44 180.13 263.44 173.82 269.74 173.82 269.74 180.13 263.44 180.13"/><polygon class="cls-27" points="263.44 200.03 263.44 193.72 269.74 193.72 269.74 200.03 263.44 200.03"/><polygon class="cls-27" points="263.44 219.92 263.44 213.61 269.74 213.61 269.74 219.92 263.44 219.92"/><polygon class="cls-27" points="263.44 239.81 263.44 233.51 269.74 233.51 269.74 239.81 263.44 239.81"/><polygon class="cls-27" points="263.44 259.71 263.44 253.4 269.74 253.4 269.74 259.71 263.44 259.71"/><polygon class="cls-27" points="263.44 279.6 263.44 273.3 269.74 273.3 269.74 279.6 263.44 279.6"/><polygon class="cls-27" points="263.44 299.5 263.44 293.19 269.74 293.19 269.74 299.5 263.44 299.5"/><polygon class="cls-27" points="263.44 319.39 263.44 313.08 269.74 313.08 269.74 319.39 263.44 319.39"/><polygon class="cls-27" points="263.44 339.29 263.44 332.98 269.74 332.98 269.74 339.29 263.44 339.29"/><polygon class="cls-27" points="263.44 359.18 263.44 352.87 269.74 352.87 269.74 359.18 263.44 359.18"/><polygon class="cls-27" points="263.44 379.07 263.44 372.77 269.74 372.77 269.74 379.07 263.44 379.07"/><polygon class="cls-27" points="263.44 398.97 263.44 392.66 269.74 392.66 269.74 398.97 263.44 398.97"/><polygon class="cls-27" points="263.44 418.86 263.44 412.56 269.74 412.56 269.74 418.86 263.44 418.86"/><polygon class="cls-27" points="263.44 438.76 263.44 432.45 269.74 432.45 269.74 438.76 263.44 438.76"/><polygon class="cls-27" points="263.44 458.65 263.44 452.34 269.74 452.34 269.74 458.65 263.44 458.65"/><polygon class="cls-27" points="263.44 478.55 263.44 472.24 269.74 472.24 269.74 478.55 263.44 478.55"/><polygon class="cls-27" points="263.44 498.44 263.44 492.13 269.74 492.13 269.74 498.44 263.44 498.44"/><polygon class="cls-27" points="263.44 518.33 263.44 512.03 269.74 512.03 269.74 518.33 263.44 518.33"/><polygon class="cls-27" points="263.44 538.23 263.44 531.92 269.74 531.92 269.74 538.23 263.44 538.23"/><polygon class="cls-27" points="263.44 558.12 263.44 551.82 269.74 551.82 269.74 558.12 263.44 558.12"/><polygon class="cls-27" points="263.44 578.02 263.44 571.71 269.74 571.71 269.74 578.02 263.44 578.02"/><polygon class="cls-27" points="263.44 597.91 263.44 591.6 269.74 591.6 269.74 597.91 263.44 597.91"/><polygon class="cls-27" points="263.44 617.81 263.44 611.5 269.74 611.5 269.74 617.81 263.44 617.81"/><polygon class="cls-27" points="243.9 40.87 243.9 34.56 250.21 34.56 250.21 40.87 243.9 40.87"/><polygon class="cls-27" points="243.9 60.77 243.9 54.46 250.21 54.46 250.21 60.77 243.9 60.77"/><polygon class="cls-27" points="243.9 80.66 243.9 74.35 250.21 74.35 250.21 80.66 243.9 80.66"/><polygon class="cls-27" points="243.9 100.55 243.9 94.25 250.21 94.25 250.21 100.55 243.9 100.55"/><polygon class="cls-27" points="243.9 120.45 243.9 114.14 250.21 114.14 250.21 120.45 243.9 120.45"/><polygon class="cls-27" points="243.9 140.34 243.9 134.04 250.21 134.04 250.21 140.34 243.9 140.34"/><polygon class="cls-27" points="243.9 160.24 243.9 153.93 250.21 153.93 250.21 160.24 243.9 160.24"/><polygon class="cls-27" points="243.9 180.13 243.9 173.82 250.21 173.82 250.21 180.13 243.9 180.13"/><polygon class="cls-27" points="243.9 200.03 243.9 193.72 250.21 193.72 250.21 200.03 243.9 200.03"/><polygon class="cls-27" points="243.9 219.92 243.9 213.61 250.21 213.61 250.21 219.92 243.9 219.92"/><polygon class="cls-27" points="243.9 239.81 243.9 233.51 250.21 233.51 250.21 239.81 243.9 239.81"/><polygon class="cls-27" points="243.9 259.71 243.9 253.4 250.21 253.4 250.21 259.71 243.9 259.71"/><polygon class="cls-27" points="243.9 279.6 243.9 273.3 250.21 273.3 250.21 279.6 243.9 279.6"/><polygon class="cls-27" points="243.9 299.5 243.9 293.19 250.21 293.19 250.21 299.5 243.9 299.5"/><polygon class="cls-27" points="243.9 319.39 243.9 313.08 250.21 313.08 250.21 319.39 243.9 319.39"/><polygon class="cls-27" points="243.9 339.29 243.9 332.98 250.21 332.98 250.21 339.29 243.9 339.29"/><polygon class="cls-27" points="243.9 359.18 243.9 352.87 250.21 352.87 250.21 359.18 243.9 359.18"/><polygon class="cls-27" points="243.9 379.07 243.9 372.77 250.21 372.77 250.21 379.07 243.9 379.07"/><polygon class="cls-27" points="243.9 398.97 243.9 392.66 250.21 392.66 250.21 398.97 243.9 398.97"/><polygon class="cls-27" points="243.9 418.86 243.9 412.56 250.21 412.56 250.21 418.86 243.9 418.86"/><polygon class="cls-27" points="243.9 438.76 243.9 432.45 250.21 432.45 250.21 438.76 243.9 438.76"/><polygon class="cls-27" points="243.9 458.65 243.9 452.34 250.21 452.34 250.21 458.65 243.9 458.65"/><polygon class="cls-27" points="243.9 478.55 243.9 472.24 250.21 472.24 250.21 478.55 243.9 478.55"/><polygon class="cls-27" points="243.9 498.44 243.9 492.13 250.21 492.13 250.21 498.44 243.9 498.44"/><polygon class="cls-27" points="243.9 518.33 243.9 512.03 250.21 512.03 250.21 518.33 243.9 518.33"/><polygon class="cls-27" points="243.9 538.23 243.9 531.92 250.21 531.92 250.21 538.23 243.9 538.23"/><polygon class="cls-27" points="243.9 558.12 243.9 551.82 250.21 551.82 250.21 558.12 243.9 558.12"/><polygon class="cls-27" points="243.9 578.02 243.9 571.71 250.21 571.71 250.21 578.02 243.9 578.02"/><polygon class="cls-27" points="243.9 597.91 243.9 591.6 250.21 591.6 250.21 597.91 243.9 597.91"/><polygon class="cls-27" points="243.9 617.81 243.9 611.5 250.21 611.5 250.21 617.81 243.9 617.81"/><polygon class="cls-27" points="399.05 169.98 399.05 163.67 405.36 163.67 405.36 169.98 399.05 169.98"/><polygon class="cls-27" points="399.05 189.78 399.05 183.48 405.36 183.48 405.36 189.78 399.05 189.78"/><polygon class="cls-27" points="399.05 209.59 399.05 203.28 405.36 203.28 405.36 209.59 399.05 209.59"/><polygon class="cls-27" points="399.05 229.39 399.05 223.09 405.36 223.09 405.36 229.39 399.05 229.39"/><polygon class="cls-27" points="399.05 249.2 399.05 242.89 405.36 242.89 405.36 249.2 399.05 249.2"/><polygon class="cls-27" points="379.01 169.98 379.01 163.67 385.32 163.67 385.32 169.98 379.01 169.98"/><polygon class="cls-27" points="379.01 189.78 379.01 183.48 385.32 183.48 385.32 189.78 379.01 189.78"/><polygon class="cls-27" points="379.01 209.59 379.01 203.28 385.32 203.28 385.32 209.59 379.01 209.59"/><polygon class="cls-27" points="379.01 229.39 379.01 223.09 385.32 223.09 385.32 229.39 379.01 229.39"/><polygon class="cls-27" points="379.01 249.2 379.01 242.89 385.32 242.89 385.32 249.2 379.01 249.2"/><polygon class="cls-27" points="399.05 289.45 399.05 283.15 405.36 283.15 405.36 289.45 399.05 289.45"/><polygon class="cls-27" points="399.05 309.26 399.05 302.95 405.36 302.95 405.36 309.26 399.05 309.26"/><polygon class="cls-27" points="399.05 329.06 399.05 322.76 405.36 322.76 405.36 329.06 399.05 329.06"/><polygon class="cls-27" points="399.05 348.87 399.05 342.56 405.36 342.56 405.36 348.87 399.05 348.87"/><polygon class="cls-27" points="399.05 368.67 399.05 362.37 405.36 362.37 405.36 368.67 399.05 368.67"/><polygon class="cls-27" points="379.01 289.45 379.01 283.15 385.32 283.15 385.32 289.45 379.01 289.45"/><polygon class="cls-27" points="379.01 309.26 379.01 302.95 385.32 302.95 385.32 309.26 379.01 309.26"/><polygon class="cls-27" points="379.01 329.06 379.01 322.76 385.32 322.76 385.32 329.06 379.01 329.06"/><polygon class="cls-27" points="379.01 348.87 379.01 342.56 385.32 342.56 385.32 348.87 379.01 348.87"/><polygon class="cls-27" points="379.01 368.67 379.01 362.37 385.32 362.37 385.32 368.67 379.01 368.67"/><polygon class="cls-27" points="399.05 408.93 399.05 402.62 405.36 402.62 405.36 408.93 399.05 408.93"/><polygon class="cls-27" points="399.05 428.73 399.05 422.43 405.36 422.43 405.36 428.73 399.05 428.73"/><polygon class="cls-27" points="399.05 448.54 399.05 442.23 405.36 442.23 405.36 448.54 399.05 448.54"/><polygon class="cls-27" points="399.05 468.34 399.05 462.04 405.36 462.04 405.36 468.34 399.05 468.34"/><polygon class="cls-27" points="399.05 488.15 399.05 481.84 405.36 481.84 405.36 488.15 399.05 488.15"/><polygon class="cls-27" points="379.01 408.93 379.01 402.62 385.32 402.62 385.32 408.93 379.01 408.93"/><polygon class="cls-27" points="379.01 428.73 379.01 422.43 385.32 422.43 385.32 428.73 379.01 428.73"/><polygon class="cls-27" points="379.01 448.54 379.01 442.23 385.32 442.23 385.32 448.54 379.01 448.54"/><polygon class="cls-27" points="379.01 468.34 379.01 462.04 385.32 462.04 385.32 468.34 379.01 468.34"/><polygon class="cls-27" points="379.01 488.15 379.01 481.84 385.32 481.84 385.32 488.15 379.01 488.15"/><polygon class="cls-27" points="399.05 528.4 399.05 522.1 405.36 522.1 405.36 528.4 399.05 528.4"/><polygon class="cls-27" points="399.05 548.21 399.05 541.9 405.36 541.9 405.36 548.21 399.05 548.21"/><polygon class="cls-27" points="399.05 568.01 399.05 561.71 405.36 561.71 405.36 568.01 399.05 568.01"/><polygon class="cls-27" points="399.05 587.82 399.05 581.51 405.36 581.51 405.36 587.82 399.05 587.82"/><polygon class="cls-27" points="399.05 607.62 399.05 601.32 405.36 601.32 405.36 607.62 399.05 607.62"/><polygon class="cls-27" points="379.01 528.4 379.01 522.1 385.32 522.1 385.32 528.4 379.01 528.4"/><polygon class="cls-27" points="379.01 548.21 379.01 541.9 385.32 541.9 385.32 548.21 379.01 548.21"/><polygon class="cls-27" points="379.01 568.01 379.01 561.71 385.32 561.71 385.32 568.01 379.01 568.01"/><polygon class="cls-27" points="379.01 587.82 379.01 581.51 385.32 581.51 385.32 587.82 379.01 587.82"/><polygon class="cls-27" points="379.01 607.62 379.01 601.32 385.32 601.32 385.32 607.62 379.01 607.62"/><rect class="cls-63" x="417.76" y="44.19" width="2.06" height="563.43"/><rect class="cls-69" x="365.47" y="44.19" width="2.06" height="563.43"/><path class="cls-69" d="M367.07,20.45v-2.16h6.53v-6.21h2.01v6.21h6.55v2.16h-6.55v6.21h-2.01v-6.21h-6.53Z"/><path class="cls-63" d="M418.56,20.38h-13.19v-2.01h13.19v2.01Z"/><path class="cls-69" d="M367.07,634.01v-2.16h6.53v-6.21h2.01v6.21h6.55v2.16h-6.55v6.21h-2.01v-6.21h-6.53Z"/><path class="cls-63" d="M418.56,633.94h-13.19v-2.01h13.19v2.01Z"/><rect class="cls-50" x="352.11" y="5.13" width="2.06" height="642.99"/><polygon class="cls-27" points="33.82 50.5 33.82 44.2 27.52 44.2 27.52 50.5 33.82 50.5"/><polygon class="cls-27" points="33.82 70.31 33.82 64 27.52 64 27.52 70.31 33.82 70.31"/><polygon class="cls-27" points="33.82 90.11 33.82 83.81 27.52 83.81 27.52 90.11 33.82 90.11"/><polygon class="cls-27" points="33.82 109.92 33.82 103.61 27.52 103.61 27.52 109.92 33.82 109.92"/><polygon class="cls-27" points="33.82 129.72 33.82 123.42 27.52 123.42 27.52 129.72 33.82 129.72"/><polygon class="cls-27" points="53.87 50.5 53.87 44.2 47.56 44.2 47.56 50.5 53.87 50.5"/><polygon class="cls-27" points="53.87 70.31 53.87 64 47.56 64 47.56 70.31 53.87 70.31"/><polygon class="cls-27" points="53.87 90.11 53.87 83.81 47.56 83.81 47.56 90.11 53.87 90.11"/><polygon class="cls-27" points="53.87 109.92 53.87 103.61 47.56 103.61 47.56 109.92 53.87 109.92"/><polygon class="cls-27" points="53.87 129.72 53.87 123.42 47.56 123.42 47.56 129.72 53.87 129.72"/><polygon class="cls-27" points="110.84 40.87 110.84 34.56 104.53 34.56 104.53 40.87 110.84 40.87"/><polygon class="cls-27" points="110.84 60.77 110.84 54.46 104.53 54.46 104.53 60.77 110.84 60.77"/><polygon class="cls-27" points="110.84 80.66 110.84 74.35 104.53 74.35 104.53 80.66 110.84 80.66"/><polygon class="cls-27" points="110.84 100.55 110.84 94.25 104.53 94.25 104.53 100.55 110.84 100.55"/><polygon class="cls-27" points="110.84 120.45 110.84 114.14 104.53 114.14 104.53 120.45 110.84 120.45"/><polygon class="cls-27" points="110.84 140.34 110.84 134.04 104.53 134.04 104.53 140.34 110.84 140.34"/><polygon class="cls-27" points="110.84 160.24 110.84 153.93 104.53 153.93 104.53 160.24 110.84 160.24"/><polygon class="cls-27" points="110.84 180.13 110.84 173.82 104.53 173.82 104.53 180.13 110.84 180.13"/><polygon class="cls-27" points="110.84 200.03 110.84 193.72 104.53 193.72 104.53 200.03 110.84 200.03"/><polygon class="cls-27" points="110.84 219.92 110.84 213.61 104.53 213.61 104.53 219.92 110.84 219.92"/><polygon class="cls-27" points="110.84 239.81 110.84 233.51 104.53 233.51 104.53 239.81 110.84 239.81"/><polygon class="cls-27" points="110.84 259.71 110.84 253.4 104.53 253.4 104.53 259.71 110.84 259.71"/><polygon class="cls-27" points="110.84 279.6 110.84 273.3 104.53 273.3 104.53 279.6 110.84 279.6"/><polygon class="cls-27" points="110.84 299.5 110.84 293.19 104.53 293.19 104.53 299.5 110.84 299.5"/><polygon class="cls-27" points="110.84 319.39 110.84 313.08 104.53 313.08 104.53 319.39 110.84 319.39"/><polygon class="cls-27" points="110.84 339.29 110.84 332.98 104.53 332.98 104.53 339.29 110.84 339.29"/><polygon class="cls-27" points="110.84 359.18 110.84 352.87 104.53 352.87 104.53 359.18 110.84 359.18"/><polygon class="cls-27" points="110.84 379.07 110.84 372.77 104.53 372.77 104.53 379.07 110.84 379.07"/><polygon class="cls-27" points="110.84 398.97 110.84 392.66 104.53 392.66 104.53 398.97 110.84 398.97"/><polygon class="cls-27" points="110.84 418.86 110.84 412.56 104.53 412.56 104.53 418.86 110.84 418.86"/><polygon class="cls-27" points="110.84 438.76 110.84 432.45 104.53 432.45 104.53 438.76 110.84 438.76"/><polygon class="cls-27" points="110.84 458.65 110.84 452.34 104.53 452.34 104.53 458.65 110.84 458.65"/><polygon class="cls-27" points="110.84 478.55 110.84 472.24 104.53 472.24 104.53 478.55 110.84 478.55"/><polygon class="cls-27" points="110.84 498.44 110.84 492.13 104.53 492.13 104.53 498.44 110.84 498.44"/><polygon class="cls-27" points="110.84 518.33 110.84 512.03 104.53 512.03 104.53 518.33 110.84 518.33"/><polygon class="cls-27" points="110.84 538.23 110.84 531.92 104.53 531.92 104.53 538.23 110.84 538.23"/><polygon class="cls-27" points="110.84 558.12 110.84 551.82 104.53 551.82 104.53 558.12 110.84 558.12"/><polygon class="cls-27" points="110.84 578.02 110.84 571.71 104.53 571.71 104.53 578.02 110.84 578.02"/><polygon class="cls-27" points="110.84 597.91 110.84 591.6 104.53 591.6 104.53 597.91 110.84 597.91"/><polygon class="cls-27" points="110.84 617.81 110.84 611.5 104.53 611.5 104.53 617.81 110.84 617.81"/><polygon class="cls-27" points="130.37 40.87 130.37 34.56 124.07 34.56 124.07 40.87 130.37 40.87"/><polygon class="cls-27" points="130.37 60.77 130.37 54.46 124.07 54.46 124.07 60.77 130.37 60.77"/><polygon class="cls-27" points="130.37 80.66 130.37 74.35 124.07 74.35 124.07 80.66 130.37 80.66"/><polygon class="cls-27" points="130.37 100.55 130.37 94.25 124.07 94.25 124.07 100.55 130.37 100.55"/><polygon class="cls-27" points="130.37 120.45 130.37 114.14 124.07 114.14 124.07 120.45 130.37 120.45"/><polygon class="cls-27" points="130.37 140.34 130.37 134.04 124.07 134.04 124.07 140.34 130.37 140.34"/><polygon class="cls-27" points="130.37 160.24 130.37 153.93 124.07 153.93 124.07 160.24 130.37 160.24"/><polygon class="cls-27" points="130.37 180.13 130.37 173.82 124.07 173.82 124.07 180.13 130.37 180.13"/><polygon class="cls-27" points="130.37 200.03 130.37 193.72 124.07 193.72 124.07 200.03 130.37 200.03"/><polygon class="cls-27" points="130.37 219.92 130.37 213.61 124.07 213.61 124.07 219.92 130.37 219.92"/><polygon class="cls-27" points="130.37 239.81 130.37 233.51 124.07 233.51 124.07 239.81 130.37 239.81"/><polygon class="cls-27" points="130.37 259.71 130.37 253.4 124.07 253.4 124.07 259.71 130.37 259.71"/><polygon class="cls-27" points="130.37 279.6 130.37 273.3 124.07 273.3 124.07 279.6 130.37 279.6"/><polygon class="cls-27" points="130.37 299.5 130.37 293.19 124.07 293.19 124.07 299.5 130.37 299.5"/><polygon class="cls-27" points="130.37 319.39 130.37 313.08 124.07 313.08 124.07 319.39 130.37 319.39"/><polygon class="cls-27" points="130.37 339.29 130.37 332.98 124.07 332.98 124.07 339.29 130.37 339.29"/><polygon class="cls-27" points="130.37 359.18 130.37 352.87 124.07 352.87 124.07 359.18 130.37 359.18"/><polygon class="cls-27" points="130.37 379.07 130.37 372.77 124.07 372.77 124.07 379.07 130.37 379.07"/><polygon class="cls-27" points="130.37 398.97 130.37 392.66 124.07 392.66 124.07 398.97 130.37 398.97"/><polygon class="cls-27" points="130.37 418.86 130.37 412.56 124.07 412.56 124.07 418.86 130.37 418.86"/><polygon class="cls-27" points="130.37 438.76 130.37 432.45 124.07 432.45 124.07 438.76 130.37 438.76"/><polygon class="cls-27" points="130.37 458.65 130.37 452.34 124.07 452.34 124.07 458.65 130.37 458.65"/><polygon class="cls-27" points="130.37 478.55 130.37 472.24 124.07 472.24 124.07 478.55 130.37 478.55"/><polygon class="cls-27" points="130.37 498.44 130.37 492.13 124.07 492.13 124.07 498.44 130.37 498.44"/><polygon class="cls-27" points="130.37 518.33 130.37 512.03 124.07 512.03 124.07 518.33 130.37 518.33"/><polygon class="cls-27" points="130.37 538.23 130.37 531.92 124.07 531.92 124.07 538.23 130.37 538.23"/><polygon class="cls-27" points="130.37 558.12 130.37 551.82 124.07 551.82 124.07 558.12 130.37 558.12"/><polygon class="cls-27" points="130.37 578.02 130.37 571.71 124.07 571.71 124.07 578.02 130.37 578.02"/><polygon class="cls-27" points="130.37 597.91 130.37 591.6 124.07 591.6 124.07 597.91 130.37 597.91"/><polygon class="cls-27" points="130.37 617.81 130.37 611.5 124.07 611.5 124.07 617.81 130.37 617.81"/><polygon class="cls-27" points="149.91 40.87 149.91 34.56 143.6 34.56 143.6 40.87 149.91 40.87"/><polygon class="cls-27" points="149.91 60.77 149.91 54.46 143.6 54.46 143.6 60.77 149.91 60.77"/><polygon class="cls-27" points="149.91 80.66 149.91 74.35 143.6 74.35 143.6 80.66 149.91 80.66"/><polygon class="cls-27" points="149.91 100.55 149.91 94.25 143.6 94.25 143.6 100.55 149.91 100.55"/><polygon class="cls-27" points="149.91 120.45 149.91 114.14 143.6 114.14 143.6 120.45 149.91 120.45"/><polygon class="cls-27" points="149.91 140.34 149.91 134.04 143.6 134.04 143.6 140.34 149.91 140.34"/><polygon class="cls-27" points="149.91 160.24 149.91 153.93 143.6 153.93 143.6 160.24 149.91 160.24"/><polygon class="cls-27" points="149.91 180.13 149.91 173.82 143.6 173.82 143.6 180.13 149.91 180.13"/><polygon class="cls-27" points="149.91 200.03 149.91 193.72 143.6 193.72 143.6 200.03 149.91 200.03"/><polygon class="cls-27" points="149.91 219.92 149.91 213.61 143.6 213.61 143.6 219.92 149.91 219.92"/><polygon class="cls-27" points="149.91 239.81 149.91 233.51 143.6 233.51 143.6 239.81 149.91 239.81"/><polygon class="cls-27" points="149.91 259.71 149.91 253.4 143.6 253.4 143.6 259.71 149.91 259.71"/><polygon class="cls-27" points="149.91 279.6 149.91 273.3 143.6 273.3 143.6 279.6 149.91 279.6"/><polygon class="cls-27" points="149.91 299.5 149.91 293.19 143.6 293.19 143.6 299.5 149.91 299.5"/><polygon class="cls-27" points="149.91 319.39 149.91 313.08 143.6 313.08 143.6 319.39 149.91 319.39"/><polygon class="cls-27" points="149.91 339.29 149.91 332.98 143.6 332.98 143.6 339.29 149.91 339.29"/><polygon class="cls-27" points="149.91 359.18 149.91 352.87 143.6 352.87 143.6 359.18 149.91 359.18"/><polygon class="cls-27" points="149.91 379.07 149.91 372.77 143.6 372.77 143.6 379.07 149.91 379.07"/><polygon class="cls-27" points="149.91 398.97 149.91 392.66 143.6 392.66 143.6 398.97 149.91 398.97"/><polygon class="cls-27" points="149.91 418.86 149.91 412.56 143.6 412.56 143.6 418.86 149.91 418.86"/><polygon class="cls-27" points="149.91 438.76 149.91 432.45 143.6 432.45 143.6 438.76 149.91 438.76"/><polygon class="cls-27" points="149.91 458.65 149.91 452.34 143.6 452.34 143.6 458.65 149.91 458.65"/><polygon class="cls-27" points="149.91 478.55 149.91 472.24 143.6 472.24 143.6 478.55 149.91 478.55"/><polygon class="cls-27" points="149.91 498.44 149.91 492.13 143.6 492.13 143.6 498.44 149.91 498.44"/><polygon class="cls-27" points="149.91 518.33 149.91 512.03 143.6 512.03 143.6 518.33 149.91 518.33"/><polygon class="cls-27" points="149.91 538.23 149.91 531.92 143.6 531.92 143.6 538.23 149.91 538.23"/><polygon class="cls-27" points="149.91 558.12 149.91 551.82 143.6 551.82 143.6 558.12 149.91 558.12"/><polygon class="cls-27" points="149.91 578.02 149.91 571.71 143.6 571.71 143.6 578.02 149.91 578.02"/><polygon class="cls-27" points="149.91 597.91 149.91 591.6 143.6 591.6 143.6 597.91 149.91 597.91"/><polygon class="cls-27" points="149.91 617.81 149.91 611.5 143.6 611.5 143.6 617.81 149.91 617.81"/><polygon class="cls-27" points="169.44 40.87 169.44 34.56 163.13 34.56 163.13 40.87 169.44 40.87"/><polygon class="cls-27" points="169.44 60.77 169.44 54.46 163.13 54.46 163.13 60.77 169.44 60.77"/><polygon class="cls-27" points="169.44 80.66 169.44 74.35 163.13 74.35 163.13 80.66 169.44 80.66"/><polygon class="cls-27" points="169.44 100.55 169.44 94.25 163.13 94.25 163.13 100.55 169.44 100.55"/><polygon class="cls-27" points="169.44 120.45 169.44 114.14 163.13 114.14 163.13 120.45 169.44 120.45"/><polygon class="cls-27" points="169.44 140.34 169.44 134.04 163.13 134.04 163.13 140.34 169.44 140.34"/><polygon class="cls-27" points="169.44 160.24 169.44 153.93 163.13 153.93 163.13 160.24 169.44 160.24"/><polygon class="cls-27" points="169.44 180.13 169.44 173.82 163.13 173.82 163.13 180.13 169.44 180.13"/><polygon class="cls-27" points="169.44 200.03 169.44 193.72 163.13 193.72 163.13 200.03 169.44 200.03"/><polygon class="cls-27" points="169.44 219.92 169.44 213.61 163.13 213.61 163.13 219.92 169.44 219.92"/><polygon class="cls-27" points="169.44 239.81 169.44 233.51 163.13 233.51 163.13 239.81 169.44 239.81"/><polygon class="cls-27" points="169.44 259.71 169.44 253.4 163.13 253.4 163.13 259.71 169.44 259.71"/><polygon class="cls-27" points="169.44 279.6 169.44 273.3 163.13 273.3 163.13 279.6 169.44 279.6"/><polygon class="cls-27" points="169.44 299.5 169.44 293.19 163.13 293.19 163.13 299.5 169.44 299.5"/><polygon class="cls-27" points="169.44 319.39 169.44 313.08 163.13 313.08 163.13 319.39 169.44 319.39"/><polygon class="cls-27" points="169.44 339.29 169.44 332.98 163.13 332.98 163.13 339.29 169.44 339.29"/><polygon class="cls-27" points="169.44 359.18 169.44 352.87 163.13 352.87 163.13 359.18 169.44 359.18"/><polygon class="cls-27" points="169.44 379.07 169.44 372.77 163.13 372.77 163.13 379.07 169.44 379.07"/><polygon class="cls-27" points="169.44 398.97 169.44 392.66 163.13 392.66 163.13 398.97 169.44 398.97"/><polygon class="cls-27" points="169.44 418.86 169.44 412.56 163.13 412.56 163.13 418.86 169.44 418.86"/><polygon class="cls-27" points="169.44 438.76 169.44 432.45 163.13 432.45 163.13 438.76 169.44 438.76"/><polygon class="cls-27" points="169.44 458.65 169.44 452.34 163.13 452.34 163.13 458.65 169.44 458.65"/><polygon class="cls-27" points="169.44 478.55 169.44 472.24 163.13 472.24 163.13 478.55 169.44 478.55"/><polygon class="cls-27" points="169.44 498.44 169.44 492.13 163.13 492.13 163.13 498.44 169.44 498.44"/><polygon class="cls-27" points="169.44 518.33 169.44 512.03 163.13 512.03 163.13 518.33 169.44 518.33"/><polygon class="cls-27" points="169.44 538.23 169.44 531.92 163.13 531.92 163.13 538.23 169.44 538.23"/><polygon class="cls-27" points="169.44 558.12 169.44 551.82 163.13 551.82 163.13 558.12 169.44 558.12"/><polygon class="cls-27" points="169.44 578.02 169.44 571.71 163.13 571.71 163.13 578.02 169.44 578.02"/><polygon class="cls-27" points="169.44 597.91 169.44 591.6 163.13 591.6 163.13 597.91 169.44 597.91"/><polygon class="cls-27" points="169.44 617.81 169.44 611.5 163.13 611.5 163.13 617.81 169.44 617.81"/><polygon class="cls-27" points="188.98 40.87 188.98 34.56 182.67 34.56 182.67 40.87 188.98 40.87"/><polygon class="cls-27" points="188.98 60.77 188.98 54.46 182.67 54.46 182.67 60.77 188.98 60.77"/><polygon class="cls-27" points="188.98 80.66 188.98 74.35 182.67 74.35 182.67 80.66 188.98 80.66"/><polygon class="cls-27" points="188.98 100.55 188.98 94.25 182.67 94.25 182.67 100.55 188.98 100.55"/><polygon class="cls-27" points="188.98 120.45 188.98 114.14 182.67 114.14 182.67 120.45 188.98 120.45"/><polygon class="cls-27" points="188.98 140.34 188.98 134.04 182.67 134.04 182.67 140.34 188.98 140.34"/><polygon class="cls-27" points="188.98 160.24 188.98 153.93 182.67 153.93 182.67 160.24 188.98 160.24"/><polygon class="cls-27" points="188.98 180.13 188.98 173.82 182.67 173.82 182.67 180.13 188.98 180.13"/><polygon class="cls-27" points="188.98 200.03 188.98 193.72 182.67 193.72 182.67 200.03 188.98 200.03"/><polygon class="cls-27" points="188.98 219.92 188.98 213.61 182.67 213.61 182.67 219.92 188.98 219.92"/><polygon class="cls-27" points="188.98 239.81 188.98 233.51 182.67 233.51 182.67 239.81 188.98 239.81"/><polygon class="cls-27" points="188.98 259.71 188.98 253.4 182.67 253.4 182.67 259.71 188.98 259.71"/><polygon class="cls-27" points="188.98 279.6 188.98 273.3 182.67 273.3 182.67 279.6 188.98 279.6"/><polygon class="cls-27" points="188.98 299.5 188.98 293.19 182.67 293.19 182.67 299.5 188.98 299.5"/><polygon class="cls-27" points="188.98 319.39 188.98 313.08 182.67 313.08 182.67 319.39 188.98 319.39"/><polygon class="cls-27" points="188.98 339.29 188.98 332.98 182.67 332.98 182.67 339.29 188.98 339.29"/><polygon class="cls-27" points="188.98 359.18 188.98 352.87 182.67 352.87 182.67 359.18 188.98 359.18"/><polygon class="cls-27" points="188.98 379.07 188.98 372.77 182.67 372.77 182.67 379.07 188.98 379.07"/><polygon class="cls-27" points="188.98 398.97 188.98 392.66 182.67 392.66 182.67 398.97 188.98 398.97"/><polygon class="cls-27" points="188.98 418.86 188.98 412.56 182.67 412.56 182.67 418.86 188.98 418.86"/><polygon class="cls-27" points="188.98 438.76 188.98 432.45 182.67 432.45 182.67 438.76 188.98 438.76"/><polygon class="cls-27" points="188.98 458.65 188.98 452.34 182.67 452.34 182.67 458.65 188.98 458.65"/><polygon class="cls-27" points="188.98 478.55 188.98 472.24 182.67 472.24 182.67 478.55 188.98 478.55"/><polygon class="cls-27" points="188.98 498.44 188.98 492.13 182.67 492.13 182.67 498.44 188.98 498.44"/><polygon class="cls-27" points="188.98 518.33 188.98 512.03 182.67 512.03 182.67 518.33 188.98 518.33"/><polygon class="cls-27" points="188.98 538.23 188.98 531.92 182.67 531.92 182.67 538.23 188.98 538.23"/><polygon class="cls-27" points="188.98 558.12 188.98 551.82 182.67 551.82 182.67 558.12 188.98 558.12"/><polygon class="cls-27" points="188.98 578.02 188.98 571.71 182.67 571.71 182.67 578.02 188.98 578.02"/><polygon class="cls-27" points="188.98 597.91 188.98 591.6 182.67 591.6 182.67 597.91 188.98 597.91"/><polygon class="cls-27" points="188.98 617.81 188.98 611.5 182.67 611.5 182.67 617.81 188.98 617.81"/><polygon class="cls-27" points="33.82 169.98 33.82 163.67 27.52 163.67 27.52 169.98 33.82 169.98"/><polygon class="cls-27" points="33.82 189.78 33.82 183.48 27.52 183.48 27.52 189.78 33.82 189.78"/><polygon class="cls-27" points="33.82 209.59 33.82 203.28 27.52 203.28 27.52 209.59 33.82 209.59"/><polygon class="cls-27" points="33.82 229.39 33.82 223.09 27.52 223.09 27.52 229.39 33.82 229.39"/><polygon class="cls-27" points="33.82 249.2 33.82 242.89 27.52 242.89 27.52 249.2 33.82 249.2"/><polygon class="cls-27" points="53.87 169.98 53.87 163.67 47.56 163.67 47.56 169.98 53.87 169.98"/><polygon class="cls-27" points="53.87 189.78 53.87 183.48 47.56 183.48 47.56 189.78 53.87 189.78"/><polygon class="cls-27" points="53.87 209.59 53.87 203.28 47.56 203.28 47.56 209.59 53.87 209.59"/><polygon class="cls-27" points="53.87 229.39 53.87 223.09 47.56 223.09 47.56 229.39 53.87 229.39"/><polygon class="cls-27" points="53.87 249.2 53.87 242.89 47.56 242.89 47.56 249.2 53.87 249.2"/><polygon class="cls-27" points="33.82 289.45 33.82 283.15 27.52 283.15 27.52 289.45 33.82 289.45"/><polygon class="cls-27" points="33.82 309.26 33.82 302.95 27.52 302.95 27.52 309.26 33.82 309.26"/><polygon class="cls-27" points="33.82 329.06 33.82 322.76 27.52 322.76 27.52 329.06 33.82 329.06"/><polygon class="cls-27" points="33.82 348.87 33.82 342.56 27.52 342.56 27.52 348.87 33.82 348.87"/><polygon class="cls-27" points="33.82 368.67 33.82 362.37 27.52 362.37 27.52 368.67 33.82 368.67"/><polygon class="cls-27" points="53.87 289.45 53.87 283.15 47.56 283.15 47.56 289.45 53.87 289.45"/><polygon class="cls-27" points="53.87 309.26 53.87 302.95 47.56 302.95 47.56 309.26 53.87 309.26"/><polygon class="cls-27" points="53.87 329.06 53.87 322.76 47.56 322.76 47.56 329.06 53.87 329.06"/><polygon class="cls-27" points="53.87 348.87 53.87 342.56 47.56 342.56 47.56 348.87 53.87 348.87"/><polygon class="cls-27" points="53.87 368.67 53.87 362.37 47.56 362.37 47.56 368.67 53.87 368.67"/><polygon class="cls-27" points="33.82 408.93 33.82 402.62 27.52 402.62 27.52 408.93 33.82 408.93"/><polygon class="cls-27" points="33.82 428.73 33.82 422.43 27.52 422.43 27.52 428.73 33.82 428.73"/><polygon class="cls-27" points="33.82 448.54 33.82 442.23 27.52 442.23 27.52 448.54 33.82 448.54"/><polygon class="cls-27" points="33.82 468.34 33.82 462.04 27.52 462.04 27.52 468.34 33.82 468.34"/><polygon class="cls-27" points="33.82 488.15 33.82 481.84 27.52 481.84 27.52 488.15 33.82 488.15"/><polygon class="cls-27" points="53.87 408.93 53.87 402.62 47.56 402.62 47.56 408.93 53.87 408.93"/><polygon class="cls-27" points="53.87 428.73 53.87 422.43 47.56 422.43 47.56 428.73 53.87 428.73"/><polygon class="cls-27" points="53.87 448.54 53.87 442.23 47.56 442.23 47.56 448.54 53.87 448.54"/><polygon class="cls-27" points="53.87 468.34 53.87 462.04 47.56 462.04 47.56 468.34 53.87 468.34"/><polygon class="cls-27" points="53.87 488.15 53.87 481.84 47.56 481.84 47.56 488.15 53.87 488.15"/><polygon class="cls-27" points="33.82 528.4 33.82 522.1 27.52 522.1 27.52 528.4 33.82 528.4"/><polygon class="cls-27" points="33.82 548.21 33.82 541.9 27.52 541.9 27.52 548.21 33.82 548.21"/><polygon class="cls-27" points="33.82 568.01 33.82 561.71 27.52 561.71 27.52 568.01 33.82 568.01"/><polygon class="cls-27" points="33.82 587.82 33.82 581.51 27.52 581.51 27.52 587.82 33.82 587.82"/><polygon class="cls-27" points="33.82 607.62 33.82 601.32 27.52 601.32 27.52 607.62 33.82 607.62"/><polygon class="cls-27" points="53.87 528.4 53.87 522.1 47.56 522.1 47.56 528.4 53.87 528.4"/><polygon class="cls-27" points="53.87 548.21 53.87 541.9 47.56 541.9 47.56 548.21 53.87 548.21"/><polygon class="cls-27" points="53.87 568.01 53.87 561.71 47.56 561.71 47.56 568.01 53.87 568.01"/><polygon class="cls-27" points="53.87 587.82 53.87 581.51 47.56 581.51 47.56 587.82 53.87 587.82"/><polygon class="cls-27" points="53.87 607.62 53.87 601.32 47.56 601.32 47.56 607.62 53.87 607.62"/><rect class="cls-69" x="13.06" y="44.19" width="2.06" height="563.43"/><rect class="cls-63" x="65.35" y="44.19" width="2.06" height="563.43"/><path class="cls-69" d="M14.44,20.45v-2.16h6.53v-6.21h2.01v6.21h6.55v2.16h-6.55v6.21h-2.01v-6.21h-6.53Z"/><path class="cls-63" d="M65.92,20.38h-13.19v-2.01h13.19v2.01Z"/><path class="cls-69" d="M14.44,634.01v-2.16h6.53v-6.21h2.01v6.21h6.55v2.16h-6.55v6.21h-2.01v-6.21h-6.53Z"/><path class="cls-63" d="M65.92,633.94h-13.19v-2.01h13.19v2.01Z"/><rect class="cls-50" x="78.71" y="5.13" width="2.06" height="642.99"/><path class="cls-50" d="M208.32,649.15V4.1h18.88V649.15h-18.88ZM210.37,6.16V647.09h14.76V6.16h-14.76Z"/></g></g><text class="cls-14" transform="translate(104.13 634.04)"><tspan x="0" y="0" xml:space="preserve">a   b   c  d   e               f   g   h    i    j</tspan></text><text class="cls-14" transform="translate(103.63 26.74)"><tspan x="0" y="0" xml:space="preserve">a   b   c  d   e               f   g   h    i    j</tspan></text><g><text class="cls-15" transform="translate(84.22 42.81)"><tspan x="0" y="0">1</tspan></text><text class="cls-15" transform="translate(84.22 62.55)"><tspan x="0" y="0">2</tspan></text><text class="cls-15" transform="translate(84.22 82.55)"><tspan x="0" y="0">3</tspan></text><text class="cls-15" transform="translate(84.22 102.55)"><tspan x="0" y="0">4</tspan></text><text class="cls-15" transform="translate(84.22 121.55)"><tspan x="0" y="0">5</tspan></text><text class="cls-15" transform="translate(84.22 142.53)"><tspan x="0" y="0">6</tspan></text><text class="cls-15" transform="translate(84.22 162.27)"><tspan x="0" y="0">7</tspan></text><text class="cls-15" transform="translate(84.22 182.27)"><tspan x="0" y="0">8</tspan></text><text class="cls-15" transform="translate(84.22 202.27)"><tspan x="0" y="0">9</tspan></text><text class="cls-15" transform="translate(84.22 221.27)"><tspan x="0" y="0">10</tspan></text><text class="cls-15" transform="translate(84.22 240.83)"><tspan x="0" y="0">11</tspan></text><text class="cls-15" transform="translate(84.22 260.57)"><tspan x="0" y="0">12</tspan></text><text class="cls-15" transform="translate(84.22 280.57)"><tspan x="0" y="0">13</tspan></text><text class="cls-15" transform="translate(84.22 300.57)"><tspan x="0" y="0">14</tspan></text><text class="cls-15" transform="translate(84.22 319.57)"><tspan x="0" y="0">15</tspan></text><text class="cls-15" transform="translate(84.22 339.83)"><tspan x="0" y="0">16</tspan></text><text class="cls-15" transform="translate(84.22 359.57)"><tspan x="0" y="0">17</tspan></text><text class="cls-15" transform="translate(84.22 379.57)"><tspan x="0" y="0">18</tspan></text><text class="cls-15" transform="translate(84.22 399.57)"><tspan x="0" y="0">19</tspan></text><text class="cls-15" transform="translate(84.22 418.57)"><tspan x="0" y="0">20</tspan></text><text class="cls-15" transform="translate(84.22 440.01)"><tspan x="0" y="0">21</tspan></text><text class="cls-15" transform="translate(84.22 459.75)"><tspan x="0" y="0">22</tspan></text><text class="cls-15" transform="translate(84.22 479.75)"><tspan x="0" y="0">23</tspan></text><text class="cls-15" transform="translate(84.22 499.75)"><tspan x="0" y="0">24</tspan></text><text class="cls-15" transform="translate(84.22 518.75)"><tspan x="0" y="0">25</tspan></text><text class="cls-15" transform="translate(84.22 540.18)"><tspan x="0" y="0">26</tspan></text><text class="cls-15" transform="translate(84.22 559.92)"><tspan x="0" y="0">27</tspan></text><text class="cls-15" transform="translate(84.22 579.92)"><tspan x="0" y="0">28</tspan></text><text class="cls-15" transform="translate(84.22 599.92)"><tspan x="0" y="0">29</tspan></text><text class="cls-15" transform="translate(84.22 618.92)"><tspan x="0" y="0">30</tspan></text></g><g><text class="cls-15" transform="translate(334.74 42.81)"><tspan x="0" y="0">1</tspan></text><text class="cls-15" transform="translate(334.74 62.55)"><tspan x="0" y="0">2</tspan></text><text class="cls-15" transform="translate(334.74 82.55)"><tspan x="0" y="0">3</tspan></text><text class="cls-15" transform="translate(334.74 102.55)"><tspan x="0" y="0">4</tspan></text><text class="cls-15" transform="translate(334.74 121.55)"><tspan x="0" y="0">5</tspan></text><text class="cls-15" transform="translate(334.74 142.53)"><tspan x="0" y="0">6</tspan></text><text class="cls-15" transform="translate(334.74 162.27)"><tspan x="0" y="0">7</tspan></text><text class="cls-15" transform="translate(334.74 182.27)"><tspan x="0" y="0">8</tspan></text><text class="cls-15" transform="translate(334.74 202.27)"><tspan x="0" y="0">9</tspan></text><text class="cls-15" transform="translate(334.74 221.27)"><tspan x="0" y="0">10</tspan></text><text class="cls-15" transform="translate(334.74 240.83)"><tspan x="0" y="0">11</tspan></text><text class="cls-15" transform="translate(334.74 260.57)"><tspan x="0" y="0">12</tspan></text><text class="cls-15" transform="translate(334.74 280.57)"><tspan x="0" y="0">13</tspan></text><text class="cls-15" transform="translate(334.74 300.57)"><tspan x="0" y="0">14</tspan></text><text class="cls-15" transform="translate(334.74 319.57)"><tspan x="0" y="0">15</tspan></text><text class="cls-15" transform="translate(334.74 339.83)"><tspan x="0" y="0">16</tspan></text><text class="cls-15" transform="translate(334.74 359.57)"><tspan x="0" y="0">17</tspan></text><text class="cls-15" transform="translate(334.74 379.57)"><tspan x="0" y="0">18</tspan></text><text class="cls-15" transform="translate(334.74 399.57)"><tspan x="0" y="0">19</tspan></text><text class="cls-15" transform="translate(334.74 418.57)"><tspan x="0" y="0">20</tspan></text><text class="cls-15" transform="translate(334.74 440.01)"><tspan x="0" y="0">21</tspan></text><text class="cls-15" transform="translate(334.74 459.74)"><tspan x="0" y="0">22</tspan></text><text class="cls-15" transform="translate(334.74 479.74)"><tspan x="0" y="0">23</tspan></text><text class="cls-15" transform="translate(334.74 499.74)"><tspan x="0" y="0">24</tspan></text><text class="cls-15" transform="translate(334.74 518.74)"><tspan x="0" y="0">25</tspan></text><text class="cls-15" transform="translate(334.74 540.18)"><tspan x="0" y="0">26</tspan></text><text class="cls-15" transform="translate(334.74 559.92)"><tspan x="0" y="0">27</tspan></text><text class="cls-15" transform="translate(334.74 579.92)"><tspan x="0" y="0">28</tspan></text><text class="cls-15" transform="translate(334.74 599.92)"><tspan x="0" y="0">29</tspan></text><text class="cls-15" transform="translate(334.74 618.92)"><tspan x="0" y="0">30</tspan></text></g></g></symbol><symbol id="LED_gn" viewBox="0 0 42.37 17.34"><g><path class="cls-54" d="M22.47,4.61L41.78,0c.05,0,.09,.04,.09,.08l.03,1.8s-.04,.08-.09,.08L22.5,6.57c-.05,0-.09-.03-.09-.08l-.03-1.8s.04-.08,.09-.08h0Zm0,0"/><path class="cls-68" d="M22.48,5.18L41.79,.56c.05,0,.09,.02,.09,.04v.76s-.03,.03-.08,.03L22.49,6c-.05,0-.09-.01-.09-.03v-.76s.03-.03,.08-.03h0Zm0,0"/><path class="cls-24" d="M22.47,4.71s-.09,.03-.09,.07v.19s.04-.06,.09-.06L41.79,.3c.05,0,.09,.02,.09,.05V.16s-.04-.07-.1-.07L22.47,4.71Zm-.07,1.5v.19s.04,.07,.1,.07L41.81,1.86c.05,0,.09-.03,.09-.07v-.19s-.04,.05-.09,.05L22.5,6.27c-.05,0-.09-.02-.09-.05h0Zm0,0"/><path class="cls-54" d="M22.96,11.67l19.31,2.51c.05,0,.09,.03,.09,.08l-.02,1.8s-.04,.08-.09,.08l-19.31-2.51c-.05,0-.09-.03-.09-.08l.02-1.8s.04-.08,.09-.08h0Zm0,0"/><path class="cls-68" d="M22.96,12.23l19.31,2.51c.05,0,.09,.02,.09,.03v.77s-.05,.03-.1,.03l-19.31-2.51c-.05,0-.09-.02-.09-.04v-.76s.05-.03,.1-.03h0Zm0,0"/><path class="cls-41" d="M23.5,13.63L4.58,15.71c.14-.78-.02-1.62-.14-1.96l18.87-2.07,.2,1.96Zm0,0"/><path class="cls-24" d="M22.96,11.77c-.05,0-.09,.03-.09,.07v.19s.04-.05,.09-.05l19.31,2.51c.05,0,.09,.03,.09,.06v-.19s-.04-.07-.09-.07l-19.31-2.51Zm-.11,1.5v.19s.04,.07,.09,.07l19.31,2.51s.09-.03,.09-.07v-.19s-.04,.05-.09,.05l-19.31-2.51c-.05,0-.09-.02-.09-.05h0Zm0,0"/><path class="cls-21" d="M23.49,13.54L4.6,15.61c0-.07,.02-.14,.02-.21l18.85-2.07,.02,.2Zm-.16-1.56L4.52,14.05c-.02-.08-.04-.15-.06-.2l18.85-2.08,.02,.21Zm0,0"/><path class="cls-18" d="M23.45,13.07L4.63,15.14c0-.3-.02-.59-.06-.83l18.79-2.08,.08,.83Zm0,0"/><path class="cls-61" d="M23.75,17.34c.21,0,.38-.17,.38-.38V1.78c0-.21-.17-.38-.38-.38h-2.9c-.21,0-.38,.17-.38,.38v.61H9.34C4.17,2.38,0,5.52,0,9.41H0c0,3.89,4.17,7.03,9.34,7.03h11.14v.52c0,.21,.17,.38,.38,.38"/><path class="cls-61" d="M0,9.41"/><path class="cls-60" d="M0,9.4c0,2.81,3.63,5.45,8.81,5.34l11.67,.02v.37c0,.15,.17,.27,.38,.27h2.9c.21,0,.38-.12,.38-.27V3.54c0-.15-.17-.27-.38-.27h-2.9c-.21,0-.38,.12-.38,.27v.43l-11.31,.13C3.99,4.17,0,6.59,0,9.4H0Zm0,0"/><path class="cls-46" d="M23.75,17.34c.21,0,.38-.17,.38-.38V1.78c0-.21-.17-.38-.38-.38v15.93"/><path class="cls-45" d="M0,9.41c0,3.72,4.17,6.72,9.34,6.72h11.14v.49c0,.2,.17,.36,.38,.36h2.9c.21,0,.38-.16,.38-.36v-.85c0,.18-.17,.32-.38,.32h-2.9c-.21,0-.38-.15-.38-.32v-.43H9.34C4.17,15.34,0,12.7,0,9.41H0Zm0-.04C.03,6.1,4.19,3.48,9.34,3.48h11.14v-.51c0-.18,.17-.32,.38-.32h2.9c.21,0,.38,.14,.38,.32v-.85c0-.2-.17-.36-.38-.36h-2.9c-.21,0-.38,.16-.38,.36v.57H9.34C4.19,2.69,.03,5.66,0,9.37H0Zm0,0"/><path class="cls-23" d="M20.88,17.34V1.4h-.02c-.21,0-.38,.17-.38,.38v.61h0v14.06h0v.52c0,.21,.17,.38,.38,.38"/><path class="cls-23" d="M20.47,16.45"/><path class="cls-43" d="M12.72,15.22c0,.31,.25,.59,.56,.87l9.9-.13v1.01h.94v-6.64h-.56c-.11,1.1,.09,2.69-.11,3.21-.73,.57-1.47,.61-2.2,.73l-.84-.07v-5.25s-.67-.2-1.14,.52c-1.33,3.51-3.2,4.73-6,4.94-.4,.29-.56,.56-.56,.8h0Zm.27-2.49c.04,.6,2.21-.76,2.89-2.51,.29-.75,1.53-3.11,1.83-3.31,.3-.2,2.67-.2,2.67-.2l.1-1.43h3.65V3.15h-3.65v1.14h-3.16l-1.25-.72-.83,.48h-2.22V12.59c-.02,.05-.02,.11-.02,.14h0Zm0,0"/><path class="cls-65" d="M12.73,15.34c.05,.27,.28,.52,.55,.76l7.3-.1c-.07-.06-.11-.14-.11-.23v-.43h-7.74Zm10.45,1.63h.66c.16-.04,.28-.18,.28-.35v-.85c0,.18-.17,.32-.38,.32h-.57v.88Zm0,0"/><path class="cls-26" d="M12.92,14.75h7.55v.38c0,.15,.17,.27,.38,.27h2.9c.21,0,.38-.12,.38-.27v-4.8h-.56c-.11,1.1,.09,2.69-.11,3.21-.73,.57-1.47,.61-2.2,.73l-.84-.07v-5.25s-.67-.2-1.14,.52c-1.33,3.51-3.2,4.73-6,4.94-.16,.11-.27,.22-.36,.33h0Zm.07-2.02c.04,.6,2.21-.76,2.89-2.51,.29-.75,1.53-3.11,1.83-3.31,.3-.2,2.67-.2,2.67-.2l.1-1.43h3.65v-1.73c0-.15-.17-.27-.38-.27h-2.9c-.21,0-.38,.12-.38,.27v.75h-3.16l-.46-.27-1.59,.02h-.88l-1.36,.03V12.59c-.02,.05-.02,.11-.02,.14h0Zm0,0"/><path class="cls-48" d="M12.72,15.22c0,.31,.25,.59,.56,.87h.17c-.31-.28-.56-.56-.56-.87,0-.25,.16-.51,.56-.8,2.85-.13,5.16-.63,6.01-4.94,.26-.41,.6-.53,.83-.56-.22-.02-.67,.03-1.01,.56-1.33,3.51-3.2,4.73-6,4.94-.41,.29-.56,.56-.56,.8h0Zm.27-2.49c0,.12,.11,.16,.27,.13-.06-.02-.09-.06-.1-.13,0-.04,0-.09,.02-.14V4.05h-.18V12.59c-.02,.05-.02,.11-.02,.14h0Zm2.24-8.68h.18l.74-.43-.09-.05-.83,.48Zm5.24,.24h.18v-1.14h-.18v1.14Zm.85,9.98h.11c.74-.12,1.46-.16,2.2-.72,.2-.52,0-2.12,.11-3.21h-.18c-.11,1.1,.09,2.69-.11,3.21-.71,.55-1.43,.61-2.14,.72h0Zm1.86,2.7h.18v-1.01h-.18v1.01Zm0,0"/><path class="cls-56" d="M13.07,12.85c.38,.2,2.2-1.06,2.81-2.64,.29-.75,1.53-3.11,1.83-3.31,.3-.2,2.67-.2,2.67-.2l.1-1.43h-.25l-.1,1.43s-2.37,0-2.67,.2c-.29,.2-1.54,2.56-1.82,3.31-.52,1.35-1.94,2.47-2.57,2.64h0Zm.21,3.24h0l9.65-.13-9.66,.13Zm.62-11.82c.32,1.49,1.47,3.09,.04,7.74-.03,.26,1.48-1.77,2-4.39,.14-.72-2.03-3.35-2.03-3.35h0Zm2.05-.63l1.12,.65h.25l-1.25-.72-.12,.07Zm4.14,5.28c.05,0,.09,.02,.09,.03v4.4c-.63,1.24-1.35,1.2-2.05,1.6l2.89-.67h.08l-.68-.07v-5.25s-.14-.06-.34-.03h0Zm3.79,5.98v2.06h.24v-6.64h-.24v4.57Zm.05-9.63h.19V3.15h-.19v2.12Zm0,0"/><path class="cls-28" d="M12.92,14.75h.17c.09-.11,.21-.21,.36-.33,2.85-.13,5.16-.63,6.01-4.94,.26-.41,.6-.53,.83-.56-.03,0-.05,0-.08,0h0s-.07,0-.1,0c0,0-.01,0-.02,0-.03,0-.06,.01-.09,.02-.01,0-.02,0-.03,0,0,0-.02,0-.02,0-.03,0-.05,.02-.07,.03h-.01s-.06,.03-.09,.04c0,0-.01,0-.01,0-.02,.02-.05,.03-.08,.05,0,0-.01,0-.02,.02-.03,.01-.05,.04-.08,.06h0s-.06,.06-.09,.09c0,0-.01,.01-.02,.02-.02,.03-.05,.05-.07,.08l-.02,.02s-.05,.07-.08,.12c-.54,1.43-1.17,2.48-1.92,3.23-.11,.12-.23,.23-.35,.33-.06,.05-.12,.1-.18,.15-.06,.05-.12,.09-.18,.14-.07,.04-.13,.09-.19,.13-.13,.08-.26,.16-.4,.23-.07,.04-.13,.07-.2,.1-.07,.03-.14,.07-.21,.09-.14,.06-.29,.12-.43,.16-.07,.03-.15,.05-.23,.07-.07,.02-.15,.04-.23,.06-.08,.02-.16,.03-.23,.05-.08,.02-.16,.03-.24,.05-.08,.02-.16,.03-.24,.04-.08,.01-.17,.02-.25,.03-.09,.01-.17,.02-.25,.03-.09,0-.17,.02-.26,.02h-.01s-.07,.07-.11,.1c-.02,.01-.03,.02-.05,.04-.02,.02-.04,.04-.06,.05-.01,.02-.03,.03-.05,.04-.02,.02-.03,.03-.04,.04-.01,.02-.03,.03-.04,.05h0Zm.07-2.02s0,.03,.01,.05c0,0,0,0,0,.02,0,0,0,.02,.01,.02,0,0,.01,.01,.02,.02h.01s.02,.02,.02,.02c0,0,.01,0,.02,0,0,0,.02,0,.03,0h0s.09,0,.15,0c-.06-.02-.09-.06-.1-.13,0-.04,0-.09,.02-.14V4.06h-.18V12.59c-.02,.05-.02,.11-.02,.14h0Zm7.48-8.44h.18v-.98c-.1,.05-.18,.13-.18,.23v.75Zm.85,9.98h.11c.74-.12,1.46-.16,2.2-.72,.2-.52,0-2.12,.11-3.21h-.18c-.11,1.1,.09,2.69-.11,3.21-.04,.04-.09,.07-.14,.1-.04,.03-.09,.06-.13,.09h0s-.04,.03-.07,.04c-.02,.02-.05,.03-.07,.04l-.05,.02s-.06,.03-.09,.04c-.02,0-.03,.01-.04,.02-.04,.02-.07,.03-.1,.04-.02,0-.03,0-.04,.02-.03,.01-.06,.02-.09,.03-.02,0-.04,.01-.05,.02-.03,.01-.06,.02-.09,.03h-.04s-.07,.03-.1,.04c-.03,0-.05,.01-.08,.02-.07,.01-.13,.03-.2,.05h-.07c-.18,.05-.36,.08-.55,.1-.05,0-.1,.02-.16,.03h0Zm0,0"/><path class="cls-55" d="M13.07,12.85c.05,.03,.12,.03,.21,.01,.02,0,.04-.01,.06-.02,0,0,0,0,.01,0,.02,0,.04-.02,.06-.02,0,0,0,0,.01,0,.05-.01,.1-.04,.16-.07h0c.05-.03,.11-.06,.17-.1,.05-.03,.11-.06,.16-.1,.03-.02,.06-.04,.09-.06,.06-.04,.12-.09,.18-.13,.03-.02,.05-.04,.08-.07,.05-.03,.1-.07,.15-.12,.03-.03,.06-.05,.09-.08,.05-.04,.09-.08,.14-.12,.06-.05,.11-.11,.17-.17,0,0,.02-.01,.02-.03,.06-.06,.13-.13,.19-.2,0,0,0,0,0,0h0c.06-.08,.12-.15,.18-.22,.01-.01,.02-.03,.03-.04,.01-.02,.02-.03,.03-.05,.02-.03,.04-.06,.06-.09,.02-.02,.03-.04,.05-.07,.02-.02,.04-.05,.05-.07,.01-.02,.02-.04,.04-.06,.02-.03,.04-.06,.05-.08,.01-.02,.03-.04,.04-.07,.01-.02,.03-.05,.04-.08,.02-.02,.03-.05,.04-.07,.01-.03,.03-.06,.05-.09,.01-.02,.02-.04,.03-.06,.02-.04,.04-.07,.05-.11,0-.02,.01-.03,.02-.05,.02-.05,.04-.1,.06-.16,.29-.75,1.53-3.11,1.83-3.31,.3-.2,2.67-.2,2.67-.2l.1-1.43h-.25l-.1,1.43s-2.37,0-2.67,.2c-.29,.2-1.54,2.56-1.82,3.31-.52,1.35-1.94,2.47-2.57,2.64h0Zm.83-8.58c.32,1.49,1.47,3.09,.04,7.74-.03,.26,1.48-1.77,2-4.39,.14-.72-2.03-3.35-2.03-3.35h0Zm2.71-.25l.46,.27h.25l-.46-.27h-.24Zm1.93,10.74h.43l2.06-.48h.08l-.64-.07-.03-5.25h-.01v-.02s-.03,0-.05,0c-.01,0-.02,0-.04,0-.04,0-.1-.01-.17,0-.02,0-.05,0-.07,0,.05,0,.09,.02,.09,.03v4.4c-.51,1-1.08,1.17-1.64,1.4h0Zm5.35,.15v.48c.14-.04,.24-.14,.24-.25v-4.8h-.24v4.57Zm.05-9.63h.19v-1.73c0-.1-.08-.19-.19-.23v1.97Zm0,0"/><path class="cls-30" d="M12.73,15.34s.02,.06,.03,.09c0,0,0,0,0,.01,0,.01,0,.02,.02,.03,0,.03,.02,.05,.03,.08,0,.01,.02,.02,.02,.04,.01,.02,.03,.04,.04,.07,0,.01,.02,.03,.03,.04,.02,.02,.03,.04,.05,.06,.01,.01,.02,.03,.04,.05,.02,.02,.03,.04,.05,.06,.01,.01,.02,.03,.03,.04,.01,.01,.02,.02,.03,.03,.05,.06,.11,.11,.18,.17h.17c-.27-.24-.5-.49-.55-.76h-.18Zm0,0"/><path class="cls-67" d="M20.47,16h.4v-1.75l-.4-.04v1.79Zm0-10.65v-.07h.4V3.15h-.4v1.14h0v1.06Zm0,0"/><path class="cls-28" d="M20.47,14.76h0v.37c0,.15,.17,.27,.38,.27h.02v-1.16l-.4-.04v.55Zm0-9.41v-.07h.4V3.27h-.02c-.21,0-.38,.12-.38,.27v.75h0v1.06Zm0,0"/><path class="cls-44" d="M23.75,16.97h.38v-6.64h-.38v6.64Zm0-11.69h.38V3.15h-.38v2.12Zm0,0"/><path class="cls-66" d="M.08,9.48c0,.16,.02,.34,.05,.51,.07,.39,.19,.96,.38,1.25,1.02,2.35,4.38,3.99,8.61,3.9l11.14-.11v-1.76l-10.82,.38c-3.36,.11-6.08-.8-7.67-2.05,.28-.31,.39-.93,.27-1.59-.18-.94-.9-2-1.44-1.95-.43,.04-.54,.71-.52,1.43H.08Zm20.37,3.7l.02,1.83c.04,.23,.27,.4,.4,.5v-1.79c-.21-.15-.34-.33-.42-.53h0Zm.52,2.33c.71,.09,1.7,.05,2.69,0v-1.87c-.95,.19-1.84,.19-2.69,0v1.87Zm0,0"/><path class="cls-32" d="M23.75,16.98c.21,0,.38-.16,.38-.36v-.85c0,.18-.17,.32-.38,.32v.89Zm0-14.33c.21,0,.38,.14,.38,.32v-.85c0-.2-.17-.35-.38-.35v.89Zm0,0"/></g></symbol><symbol id="PiBreakoutBoard" viewBox="0 0 431 548"><g><path class="cls-4" d="M430,10.65v62.7c0,5.33-4.32,9.65-9.65,9.65h-119.7c-5.33,0-9.65,4.32-9.65,9.65v444.7c0,5.33-4.32,9.65-9.65,9.65H141.65c-5.33,0-9.65-4.32-9.65-9.65V92.65c0-5.33-4.32-9.65-9.65-9.65H10.65c-5.33,0-9.65-4.32-9.65-9.65V10.65C1,5.32,5.32,1,10.65,1H420.35c5.33,0,9.65,4.32,9.65,9.65Z"/><rect class="cls-3" x="14" y="6" width="403" height="46"/><rect class="cls-35" x="97" y="56" width="237" height="25"/><text class="cls-58" transform="translate(98 75.86)"><tspan x="0" y="0">GPIO E</tspan><tspan class="cls-64" x="72.8" y="0">x</tspan><tspan class="cls-25" x="85.13" y="0">t</tspan><tspan x="93.55" y="0">ension </tspan><tspan class="cls-52" x="171.32" y="0">B</tspan><tspan class="cls-10" x="185.47" y="0">oa</tspan><tspan class="cls-62" x="212.18" y="0">r</tspan><tspan x="220.39" y="0">d</tspan></text><text class="cls-13" transform="translate(141.82 104.97)"><tspan x="0" y="0">3V3</tspan></text><text class="cls-13" transform="translate(263.64 104.97)"><tspan x="0" y="0">5V0</tspan></text><text class="cls-13" transform="translate(263.63 124.7)"><tspan x="0" y="0">5V0</tspan></text><text class="cls-13" transform="translate(258.62 144.7)"><tspan x="0" y="0">GND</tspan></text><text class="cls-13" transform="translate(252.44 164.7)"><tspan x="0" y="0">TXDO</tspan></text><text class="cls-13" transform="translate(252.13 186.7)"><tspan x="0" y="0">RXDO</tspan></text><text class="cls-13" transform="translate(243.51 203.7)"><tspan x="0" y="0">GPIO18</tspan></text><text class="cls-13" transform="translate(258.62 224.7)"><tspan x="0" y="0">GND</tspan></text><text class="cls-13" transform="translate(243.51 244.31)"><tspan x="0" y="0">GPIO13</tspan></text><text class="cls-13" transform="translate(243.51 264.31)"><tspan x="0" y="0">GPIO24</tspan></text><text class="cls-13" transform="translate(258.62 285.31)"><tspan x="0" y="0">GND</tspan></text><text class="cls-13" transform="translate(243.51 304.31)"><tspan x="0" y="0">GPIO25</tspan></text><text class="cls-13" transform="translate(247.19 324.31)"><tspan x="0" y="0">SPICE0</tspan></text><text class="cls-13" transform="translate(247.19 344.31)"><tspan x="0" y="0">SPICE1</tspan></text><text class="cls-13" transform="translate(252.01 364.31)"><tspan x="0" y="0">ID_SC</tspan></text><text class="cls-13" transform="translate(258.62 384.31)"><tspan x="0" y="0">GND</tspan></text><text class="cls-13" transform="translate(243.51 404.18)"><tspan x="0" y="0">GPIO12</tspan></text><text class="cls-13" transform="translate(258.62 424.18)"><tspan x="0" y="0">GND</tspan></text><text class="cls-13" transform="translate(243.51 444.18)"><tspan x="0" y="0">GPIO16</tspan></text><text class="cls-13" transform="translate(243.51 464.18)"><tspan x="0" y="0">GPIO20</tspan></text><text class="cls-13" transform="translate(243.51 484.18)"><tspan x="0" y="0">GPIO21</tspan></text><text class="cls-12" transform="translate(141.82 125.79)"><tspan class="cls-53" x="0" y="0">S</tspan><tspan class="cls-51" x="5.8" y="0">D</tspan><tspan class="cls-53" x="13.44" y="0">A1</tspan></text><text class="cls-13" transform="translate(141.82 145.79)"><tspan x="0" y="0">SCLI</tspan></text><text class="cls-13" transform="translate(141.82 165.79)"><tspan x="0" y="0">GPIO4</tspan></text><text class="cls-13" transform="translate(141.82 185.79)"><tspan x="0" y="0">GND</tspan></text><text class="cls-13" transform="translate(141.82 204.79)"><tspan x="0" y="0">GPIO17</tspan></text><text class="cls-13" transform="translate(141.82 225.79)"><tspan x="0" y="0">GPIO27</tspan></text><text class="cls-13" transform="translate(141.82 245.4)"><tspan x="0" y="0">GPIO22</tspan></text><text class="cls-13" transform="translate(141.82 265.4)"><tspan x="0" y="0">3V3</tspan></text><text class="cls-13" transform="translate(141.82 284.4)"><tspan x="0" y="0">SPIMOSI</tspan></text><text class="cls-13" transform="translate(141.82 304.4)"><tspan x="0" y="0">SPIMISO</tspan></text><text class="cls-13" transform="translate(141.82 324.4)"><tspan x="0" y="0">SPICLK</tspan></text><text class="cls-13" transform="translate(141.82 344.4)"><tspan x="0" y="0">GND</tspan></text><text class="cls-13" transform="translate(141.82 363.4)"><tspan x="0" y="0">ID_SD</tspan></text><text class="cls-13" transform="translate(141.82 383.4)"><tspan x="0" y="0">GPIO5</tspan></text><text class="cls-13" transform="translate(141.82 403.27)"><tspan x="0" y="0">GPIO6</tspan></text><text class="cls-13" transform="translate(141.82 424.27)"><tspan x="0" y="0">GPIO13</tspan></text><text class="cls-13" transform="translate(141.82 444.27)"><tspan x="0" y="0">GPIO19</tspan></text><text class="cls-13" transform="translate(141.82 464.27)"><tspan x="0" y="0">GPIO26</tspan></text><text class="cls-13" transform="translate(141.82 484.27)"><tspan x="0" y="0">GND</tspan></text><circle class="cls-6" cx="153.5" cy="523.5" r="17"/><circle class="cls-6" cx="267.5" cy="523.5" r="17"/></g></symbol><symbol id="resistor" viewBox="0 0 79.88 14.51"><g><path class="cls-54" d="M79.72,2.67L.52,13.99c-.09,.01-.18-.02-.19-.08L0,11.6c0-.06,.07-.11,.16-.12L79.36,.16c.09-.01,.18,.02,.19,.08l.33,2.31c0,.06-.07,.11-.16,.12h0Zm0,0"/><path class="cls-24" d="M79.7,2.55c.09-.01,.17-.06,.16-.11l-.03-.24s-.07,.08-.16,.1L.46,13.6c-.09,.01-.18,0-.18-.05l.03,.24s.09,.08,.19,.06L79.7,2.55Zm-.1-1.95l-.03-.24s-.09-.08-.19-.06L.18,11.6c-.09,.01-.17,.06-.16,.11l.03,.24s.07-.08,.16-.09L79.42,.55c.09-.01,.18,0,.18,.04h0Zm0,0"/><path class="cls-68" d="M79.62,1.95L.42,13.26c-.09,.01-.18,0-.18-.01l-.14-.98s.07-.06,.17-.07L79.46,.89c.09-.01,.18,0,.18,.02l.14,.98s-.07,.05-.17,.06h0Zm0,0"/><path class="cls-33" d="M29.46,14.32s1.26-.21,1.69-.44c.04-.01,.07-.03,.11-.05,.62-.3,1.32-1.28,1.46-1.3l2.91-.4,6.28-.9,2.91-.43c.14-.02,1.09,.72,1.78,.84,.04,0,.07,.01,.11,.01,.48,.09,1.74-.07,1.75-.05l.28-.04c1.62-.25,3.29-.8,3.35-.87,2.7-3.18,2.25-3.06,2.98-3.96l.38-.6-.36-2.51-.55-.62c-.94-.66-2.24-1.63-3.97-2.97-.08-.05-1.83-.11-3.46,.1l-.28,.04c-.64,.1-1.24,.23-1.69,.44-.03,.02-.07,.03-.1,.04-.48,.3-1.1,1.3-1.67,1.32l-11.71,1.67c-.55,.14-1.42-.65-1.96-.8-.04,0-.07,0-.11-.01-.48-.07-1.1-.03-1.74,.06l-.28,.04c-1.62,.26-3.29,.8-3.35,.87-1.28,1.77-2.25,3.07-2.98,3.96l-.36,.75,.36,2.51,.53,.47c.94,.66,.48,.67,3.96,2.96,.08,.06,1.84,.11,3.46-.1l.28-.04h0Zm0,0"/><path class="cls-36" d="M29.44,14.13s1.26-.22,1.69-.43c.04-.02,.07-.03,.11-.05,.62-.29,1.32-1.24,1.47-1.26l2.91-.41,6.28-.9,2.91-.43c.14-.02,1.09,.69,1.77,.8,.04,.01,.07,.02,.11,.02,.48,.08,1.74-.08,1.74-.07,.09,0,.18-.02,.28-.04,1.62-.25,3.29-.79,3.35-.86,2.72-3.08,2.24-3.16,2.97-4.03l.39-.5-.04-.27-.41,.41c-.75,.72-.27,.8-3.06,3.36-.06,.06-1.74,.54-3.36,.79-.1,.02-.19,.03-.27,.04,0-.02-1.27,.15-1.74,.1-.04,0-.07,0-.11-.01-.68-.07-1.6-.61-1.74-.59l-2.91,.43-6.28,.9-2.91,.41c-.15,.02-.87,.8-1.5,1.06-.03,.02-.07,.03-.11,.04-.44,.19-1.7,.38-1.7,.4h0c-.09,.01-.18,.03-.28,.03-1.62,.22-3.37,.23-3.45,.19-3.4-1.67-2.94-1.7-3.85-2.18l-.51-.35,.04,.26,.53,.45c.94,.63,.48,.65,3.95,2.85,.08,.06,1.83,.1,3.46-.11,.1-.01,.19-.02,.28-.04h0ZM55.12,3.98l-.03-.24-.54-.58c-.94-.63-2.25-1.64-3.97-2.93-.08-.06-1.83-.1-3.46,.11l-.28,.04c-.64,.1-1.24,.23-1.69,.43-.03,.01-.07,.03-.1,.04-.49,.29-1.1,1.26-1.67,1.28l-11.71,1.67c-.55,.14-1.42-.62-1.96-.76-.04,0-.07-.01-.11-.01-.48-.06-1.1-.03-1.74,.06l-.28,.04c-1.62,.25-3.29,.79-3.35,.86-1.29,1.72-2.27,2.97-2.99,3.84l-.36,.73,.03,.23,.38-.59c.75-.72,1.76-1.76,3.09-3.18,.06-.06,1.74-.54,3.36-.79l.28-.04c.64-.09,1.26-.13,1.74-.1,.04,0,.08,0,.11,0,.54,.1,1.38,.68,1.93,.56l11.71-1.67c.57-.04,1.21-.83,1.7-1.08,.03-.02,.07-.02,.1-.04,.46-.17,1.06-.3,1.7-.39l.28-.04c1.62-.22,3.37-.23,3.45-.19,1.67,.99,2.96,1.77,3.87,2.26l.52,.47Zm0,0"/><path class="cls-47" d="M29.06,11.53s1.26-.2,1.7-.34c.04-.01,.07-.02,.11-.04,.64-.2,1.39-.76,1.54-.78l2.91-.41,6.28-.9,2.91-.42c.14-.02,1.03,.3,1.7,.31,.04,0,.07,0,.11,0,.47,0,1.73-.16,1.73-.15l.28-.04c1.62-.24,3.31-.64,3.38-.69,2.9-1.84,2.44-1.75,3.22-2.26l.42-.34-.18-1.28-.51-.28c-.89-.28-2.11-.7-3.72-1.28-.08-.03-1.81,.06-3.43,.29l-.28,.04c-.64,.1-1.24,.21-1.7,.35-.03,.01-.07,.02-.1,.03-.5,.19-1.18,.75-1.74,.8l-11.71,1.67c-.56,.11-1.36-.24-1.89-.28-.04,0-.07,0-.11,0-.48,0-1.09,.06-1.73,.14l-.28,.04c-1.62,.24-3.31,.64-3.38,.69-1.39,1.01-2.13,1.59-2.91,2.11l-.71,.58,.18,1.28,.74,.3c.89,.28,.19,.23,3.48,1.19,.07,.02,1.81-.07,3.43-.29l.28-.04h0Zm0,0"/><path class="cls-34" d="M46.57,11.64s0,0-.01,0c0,0,.01,0,.01,0h0Zm-.01,0h-.04s.03,0,.04,0h0Zm-15.28,2.19s.03-.02,.05-.03c.15-.08,.3-.2,.45-.33,0,0,.01-.02,.02-.02,.28-.24,.52-.52,.7-.71,0-.01,.02-.02,.03-.03t0,0s.06-.06,.09-.08c0-.01,.03-.03,.03-.04,.01,0,.02-.01,.03-.02,0,0,.01-.01,.02-.01,.01,0,.02-.01,.03-.02l-1.29-8.86c-.54-.06-1.27-.68-1.74-.81h0c.49,3.35,1.51,10.51,1.63,10.94-.01,0-.02,.01-.04,.02h0Zm15.24-2.2c-.39-.27-1.34-6.81-1.49-10.96-.03,.02-.06,.04-.09,.06,0,0-.02,.01-.02,.02-.02,.01-.04,.03-.06,.05-.02,.02-.05,.04-.07,.07-.04,.04-.08,.07-.12,.11-.12,.11-.23,.24-.36,.37-.04,.04-.08,.08-.13,.13-.03,.03-.06,.05-.09,.08-.05,.05-.09,.09-.14,.13-.03,.03-.06,.05-.09,.07,0,0,0,0-.01,0-.02,.02-.05,.04-.08,.06,0,0-.01,0-.02,.01-.02,.02-.05,.03-.08,.05,0,0,0,0-.01,0-.03,.01-.06,.03-.09,.04,.33,1.16,.6,4.57,1.27,8.86,.01,0,.02,0,.04,0h.03s.01,.01,.02,.02c.02,0,.04,.02,.06,.03,.03,.02,.06,.03,.09,.05,.02,.01,.05,.03,.07,.04,.22,.13,.51,.31,.83,.47,.01,0,.02,0,.03,.02,.18,.08,.35,.15,.52,.19h0Zm5.53-.91s.03-.01,.03-.02c2.23-2.62,2.32-3,2.68-3.56l-.63-4.39c-.9-.64-2.07-1.51-3.58-2.69,0,0-.02,0-.04,0,.76,2.68,1.55,9.23,1.53,10.68h0Zm-26.28,3.75c-.76-2.51-2.02-9.58-1.53-10.68-.02,.01-.03,.02-.03,.02-1.12,1.56-2,2.72-2.68,3.59,.18,1.6,.33,3.36,.63,4.39,.51,.43,.7,.77,3.57,2.67,0,0,.02,0,.04,.01h0Zm0,0"/><path class="cls-49" d="M30.9,11.15c.63-.2,1.36-.74,1.51-.77l-.66-4.54c-.53,.01-1.21-.27-1.68-.3,.29,1.97,.57,3.9,.82,5.61h0Zm14.99-2.21c-.25-1.56-.5-3.58-.67-5.5-.39,.19-.85,.53-1.29,.66,.16,1.2,.34,2.77,.58,4.56h0c.13-.02,.77,.21,1.37,.29h0Zm5.95-.93c2.25-1.43,2.38-1.65,2.77-1.95l-.32-2.25c-.81-.26-1.86-.62-3.19-1.1,.3,1.72,.57,3.71,.74,5.31h0Zm-26.72,3.78c-.35-1.65-.67-3.58-.85-5.15-1.17,.86-1.88,1.41-2.59,1.88h-.02c.08,.78,.17,1.52,.27,2.17,.78,.26,.28,.24,3.2,1.1h0Zm0,0"/><path class="cls-57" d="M31.28,13.63c.61-.32,1.28-1.22,1.42-1.24l-.13-.85c-.14,.03-.85,.77-1.47,1.04,.07,.46,.13,.85,.17,1.05h0Zm15.13-2.2c-.08-.21-.17-.58-.27-1.07-.62-.15-1.33-.56-1.46-.54h0c.04,.28,.09,.56,.13,.85,.14-.02,.95,.59,1.61,.77h0Zm5.63-.91s.01,0,0,0c2.25-2.55,2.31-3.04,2.67-3.63l-.06-.43c-.37,.49-.45,.91-2.69,2.96,.04,.46,.06,.83,.07,1.1h0Zm-26.33,3.76c-.09-.31-.19-.68-.28-1.09-2.77-1.37-2.88-1.6-3.4-1.94,.03,.16,.07,.32,.11,.45,.52,.42,.68,.74,3.57,2.57,0,0,0,0,.01,0h0ZM54.21,3.3l-.06-.42c-.9-.63-2.08-1.54-3.57-2.65,0,0-.01,0-.02,0,.09,.32,.17,.68,.26,1.09,1.4,.83,2.54,1.52,3.39,1.99h0ZM21.58,7.91c.66-.65,1.5-1.52,2.57-2.64-.03-.5-.02-.9,.02-1.18-1.09,1.46-1.95,2.56-2.63,3.39,.02,.14,.03,.29,.05,.43h0Zm10-3.23l-.12-.86c-.54-.05-1.27-.65-1.74-.77h0l.15,1.06h0c.47,.09,1.17,.55,1.71,.58h0Zm12.18-1.75c.46-.18,.94-.71,1.34-.96-.02-.38-.04-.76-.06-1.11-.42,.26-.94,1.02-1.45,1.22,.06,.22,.11,.51,.17,.84h0Zm0,0"/><path class="cls-22" d="M48.45,11.61l.28-.04c.54-.08,1.09-.2,1.58-.33L48.71,.02c-.51,.02-1.07,.06-1.61,.13l-.28,.04c-.13,.02-.25,.04-.36,.06l1.63,11.38c.21-.02,.37-.03,.37-.03h0Zm0,0"/><path class="cls-59" d="M41.99,11.23l2.24-.33-1.26-8.85-2.24,.32,1.27,8.86Zm0,0"/><path class="cls-42" d="M36.54,12.01l-1.27-8.86-2.24,.32,1.27,8.86,1.34-.19,.9-.13Zm0,0"/><path class="cls-37" d="M29.38,14.33l-1.63-11.42-.19,.03c-.71,.11-1.44,.28-2.03,.44l1.59,11.12c.61-.01,1.35-.05,2.07-.14l.19-.03h0Zm0,0"/><path class="cls-40" d="M48.42,11.42c.09,0,.18-.02,.28-.04,.54-.08,1.09-.2,1.58-.32l-.15-1.08c-.5,.11-1.04,.22-1.59,.3-.1,.02-.19,.03-.27,.04,0,0-.16,0-.37,.03l.16,1.09c.21-.01,.37-.03,.37-.03h0Zm.46-10.13l-.15-1.08c-.51,.02-1.07,.06-1.61,.13l-.28,.04c-.13,.02-.25,.04-.36,.06l.16,1.1c.12-.02,.24-.04,.36-.06l.28-.04c.55-.07,1.1-.12,1.61-.15h0Zm0,0"/><path class="cls-19" d="M48.05,8.82l.28-.04c.54-.08,1.09-.18,1.59-.28l-.82-5.75c-.5,.05-1.06,.1-1.6,.18l-.28,.04c-.13,.02-.25,.04-.36,.06l.83,5.83c.21-.02,.37-.04,.37-.04h0Zm0,0"/><path class="cls-20" d="M41.97,11.08l2.24-.33-.12-.85-2.24,.33,.12,.85Zm1.14-8.03l-.12-.86-2.24,.32,.12,.86,2.24-.32Zm0,0"/><path class="cls-39" d="M41.69,9.06l2.24-.32-.65-4.53-2.24,.32,.65,4.54Zm0,0"/><path class="cls-16" d="M36.51,11.86l-.12-.85-.9,.13-1.34,.19,.12,.85,1.34-.19,.9-.13Zm-1.1-7.71l-.12-.86-2.24,.32,.12,.86,2.24-.32Zm0,0"/><polygon class="cls-31" points="33.34 5.62 35.58 5.3 36.23 9.84 33.99 10.16 33.34 5.62"/><path class="cls-29" d="M29.35,14.14l-.16-1.1c-.07,0-.12,.02-.19,.03-.72,.1-1.46,.15-2.06,.18l.15,1.07c.61-.01,1.35-.05,2.07-.15l.19-.03h0Zm-3.64-9.5c.59-.15,1.32-.3,2.03-.41l.19-.03-.16-1.1-.19,.03c-.71,.11-1.44,.28-2.03,.44l.15,1.07Zm0,0"/><path class="cls-38" d="M28.98,11.55l-.84-5.85-.19,.03c-.71,.11-1.44,.25-2.04,.37l.81,5.7c.61-.04,1.34-.12,2.06-.22l.19-.03h0Zm0,0"/></g></symbol></defs><g id="Breadboard-2"><use width="436.36" height="652" transform="translate(0 64)" xlink:href="#Breadboard"/></g><g id="drivers"><g id="HSD"><g id="wires"><path class="cls-8" d="M382.26,548c-45.56,13.95-85.76,20.65-117,24-25.27,2.71-67.25,6.97-122,1-45.75-4.99-83.75-15.31-112-25"/><path class="cls-2" d="M402.26,151c-3.56,2.49-18.84,12.58-40,10-21.72-2.65-34.28-16.78-37-20"/><path class="cls-7" d="M403.26,667c-2.97,3.43-15.51,17.14-37,20-20.78,2.77-36.07-6.46-40-9"/></g><g id="components"><g><rect class="cls-5" x="231.76" y="615.5" width="45" height="46" rx="1.7" ry="1.7"/><circle class="cls-9" cx="254.26" cy="638" r="12.5"/><circle class="cls-1" cx="238.26" cy="621" r="3"/><circle class="cls-1" cx="238.26" cy="657" r="3"/><circle class="cls-1" cx="271.26" cy="657" r="3"/><circle class="cls-1" cx="271.26" cy="621" r="3"/></g><use width="42.37" height="17.34" transform="translate(247.53 680.98) scale(1.4 -1.4)" xlink:href="#LED_gn"/><use width="79.88" height="14.51" transform="translate(303.52 606.46)" xlink:href="#resistor"/></g></g></g><g id="BreakoutBoard"><use width="431" height="548" transform="translate(2.26)" xlink:href="#PiBreakoutBoard"/></g></svg>